<?xml version="1.0" encoding="utf-8"?>
<!-- Generator: Adobe Illustrator 24.3.0, SVG Export Plug-In . SVG Version: 6.00 Build 0)  -->
<svg version="1.1" xmlns="http://www.w3.org/2000/svg" xmlns:xlink="http://www.w3.org/1999/xlink" x="0px" y="0px"
	 viewBox="0 0 512 512" enable-background="new 0 0 512 512" xml:space="preserve">
<g id="sun">
	<g>
		<g>
			<polygon fill="#DEB94E" stroke="#000000" stroke-width="7" stroke-miterlimit="10" points="313.19,131.71 456.29,-109.6 
				469.86,-104.67 333.68,143.7 			"/>
			<polygon fill="#DEB94E" stroke="#000000" stroke-width="7" stroke-miterlimit="10" points="368.63,177.68 621.66,56.49 
				630.2,68.12 379.01,199.03 			"/>
			<polygon fill="#DEB94E" stroke="#000000" stroke-width="7" stroke-miterlimit="10" points="385.96,226.02 666.26,213.83 
				669.55,227.88 387.13,249.74 			"/>
			<polygon fill="#DEB94E" stroke="#000000" stroke-width="7" stroke-miterlimit="10" points="373.5,302.08 610.17,452.75 
				604.81,466.15 360.86,322.18 			"/>
			<polygon fill="#DEB94E" stroke="#000000" stroke-width="7" stroke-miterlimit="10" points="328.3,348.51 441.5,605.22 
				429.6,613.39 306.63,358.22 			"/>
			<polygon fill="#DEB94E" stroke="#000000" stroke-width="7" stroke-miterlimit="10" points="269.07,372.12 263.25,652.62 
				249.02,655 245.33,371.77 			"/>
			<polygon fill="#DEB94E" stroke="#000000" stroke-width="7" stroke-miterlimit="10" points="203.86,360.05 58.71,600.14 
				45.18,595.09 183.47,347.88 			"/>
			<polygon fill="#DEB94E" stroke="#000000" stroke-width="7" stroke-miterlimit="10" points="147.49,307.58 -109.02,421.24 
				-117.21,409.36 137.74,285.93 			"/>
			<polygon fill="#DEB94E" stroke="#000000" stroke-width="7" stroke-miterlimit="10" points="131.13,253.98 -149.35,247.41 
				-151.69,233.17 131.55,230.24 			"/>
			<polygon fill="#DEB94E" stroke="#000000" stroke-width="7" stroke-miterlimit="10" points="145.45,184.67 -88.83,30.32 
				-83.27,17 158.4,164.76 			"/>
			<polygon fill="#DEB94E" stroke="#000000" stroke-width="7" stroke-miterlimit="10" points="192.5,134.61 71.46,-118.5 
				83.1,-127.03 213.86,124.24 			"/>
			<g>
				<path fill="#DEB94E" stroke="#000000" stroke-width="7" stroke-miterlimit="10" d="M148.8,187.28
					c-6.13,2.43-12.66,5.03-19.39,4.49c-4.95-0.4-10.12-2.67-12.88-6.95c-1.54-2.4-1.66-5.39-3.2-7.76
					c-1.56-2.39-4.63-3.32-7.15-4.33c-3.11-1.24-6.35-2.37-9.73-2.55c-3.16-0.17-6.13,0.66-8.94,2.06
					c-5.01,2.5-9.36,6.38-15.07,7.19c-2.39,0.34-4.98,0.18-7.12-1.03c-2.36-1.33-3.49-3.66-4.2-6.18c-0.77-2.74-1.27-5.5-3.07-7.8
					c-1.69-2.16-4.04-3.7-6.56-4.72c-6.22-2.52-13.09-1.55-19.61-1.46c-15.78,0.21-30.98-4.76-45.79-9.63
					c0.03,0.01-0.14,6.26-0.13,5.42c-0.05,4.36-0.06,8.72-0.05,13.08c0,4.36,0,8.72,0.05,13.08c0.01,0.62-0.21,5.31,0.13,5.42
					c13.18,4.33,26.59,8.73,40.54,9.51c6.92,0.39,14.03-0.91,20.88,0.41c5.39,1.04,10.61,4.1,12.47,9.51
					c0.92,2.67,1.15,5.67,2.81,8.05c1.38,1.98,3.56,3.07,5.91,3.39c5.55,0.74,10.35-2.23,14.87-4.99c2.55-1.56,5.18-3.11,8.1-3.86
					c3.22-0.82,6.53-0.47,9.7,0.42c3.04,0.85,6.21,2.02,9.01,3.49c2.77,1.46,3.67,3.73,4.54,6.59c1.76,5.8,6.71,9.33,12.56,10.39
					c7.33,1.32,14.63-1.59,21.32-4.24c0.25-0.1,0.14-6.12,0.13-5.42c0.05-4.36,0.06-8.72,0.05-13.08c0-4.36,0-8.72-0.05-13.08
					C148.93,192.11,148.62,187.35,148.8,187.28L148.8,187.28z"/>
			</g>
			<g>
				<path fill="#DEB94E" stroke="#000000" stroke-width="7" stroke-miterlimit="10" d="M143.31,253.2
					c-6.17-0.6-12.6-0.88-18.66,0.67c-2.86,0.73-5.64,1.91-7.94,3.78c-2.51,2.04-3.98,4.7-5.14,7.67c-1.31,3.35-2.74,6.38-5.93,8.3
					c-2.79,1.68-6.12,2.3-9.34,2.29c-8.11-0.03-15.49-4.29-23.55-4.79c-7.43-0.46-14.98,1.72-21.03,6.05
					c-2.97,2.13-5.26,5.2-8.44,7.02c-2.59,1.48-5.55,1.66-8.42,1.05c-6.12-1.3-11.4-5.26-17.65-6.1c-3.4-0.46-6.54,0.39-9.4,2.26
					c-2.94,1.91-5.39,4.47-8.31,6.4c-14.08,9.31-32.61,4.11-47.12-1.3c0.04,0.02-0.14,6.25-0.13,5.42
					c-0.05,4.36-0.06,8.72-0.05,13.08c0,4.36,0,8.72,0.05,13.08c0.01,0.63-0.24,5.28,0.13,5.42c13.11,4.88,28.96,9.53,42.55,3.75
					c3.34-1.42,6.15-3.52,8.93-5.82c2.67-2.22,5.5-4.52,9-5.21c6.22-1.22,12.18,2.56,17.75,4.7c2.67,1.03,5.54,1.89,8.43,1.62
					c3.69-0.35,6.3-2.72,8.87-5.17c5.34-5.06,12.05-8.33,19.39-9.12c3.98-0.43,7.91-0.05,11.79,0.89c4.04,0.98,7.96,2.41,12.04,3.21
					c6.2,1.22,14.08,0.66,18.04-4.99c2.3-3.28,2.81-7.43,5.39-10.57c2.03-2.48,4.82-4.17,7.81-5.23c6.64-2.35,14.04-2.02,20.94-1.35
					c-0.04,0,0.19-17.11,0.18-18.49c0-4.36,0-8.72-0.05-13.08C143.43,258.07,143.49,253.22,143.31,253.2L143.31,253.2z"/>
			</g>
			<g>
				<path fill="#DEB94E" stroke="#000000" stroke-width="7" stroke-miterlimit="10" d="M158.17,305.09
					c0.02,8.07-7.42,13.15-14.25,15.68c-7.82,2.88-16.52,2.85-23.97,6.88c-3.74,2.02-6.56,5.04-8.4,8.86
					c-1.82,3.78-2.79,7.88-4.39,11.75c-1.56,3.77-3.83,7.13-7.35,9.3c-3.18,1.96-6.89,2.81-10.55,3.32
					c-7.71,1.07-16.11,0.55-23.17,4.31c-1.92,1.02-3.73,2.41-4.85,4.3c-1.37,2.32-1.05,4.87-0.95,7.44
					c0.16,4.3-1.64,8.11-4.74,11.06c-7.43,7.07-18,6.16-27.45,6.72c-2.29,0.14-4.65,0.52-6.54,1.91c-1.85,1.36-2.96,3.44-4.04,5.41
					c-2.1,3.84-4.66,7.33-7.78,10.42c-14.14,14.03-34.58,17.64-53.63,19.4c-2.67,0.25-5.35,0.46-8.03,0.68
					c0.27-0.02,4.23,4.27,3.81,3.86c3.1,3.06,6.23,6.1,9.37,9.12c3.14,3.03,6.27,6.05,9.45,9.05c0.7,0.66,1.4,1.32,2.11,1.98
					c0.6,0.59,1.23,1.16,1.88,1.69c19.57-1.59,40.44-3.46,56.64-15.73c3.52-2.67,6.72-5.78,9.36-9.32c1.29-1.73,2.4-3.55,3.44-5.44
					c1.08-1.97,2.19-4.05,4.04-5.41c3.84-2.84,9.73-1.95,14.22-2.14c4.94-0.21,10.07-0.75,14.58-2.93c3.7-1.79,7.08-4.73,8.79-8.52
					c0.93-2.04,1.21-4.16,1.11-6.39c-0.11-2.48-0.36-4.92,0.96-7.15c2.12-3.58,6.47-5.38,10.32-6.37c3.83-0.99,7.8-1.29,11.73-1.63
					c7.47-0.64,15.87-1.42,20.84-7.8c5.19-6.67,4.98-16.15,10.93-22.38c5.91-6.18,15.17-7.18,23.09-8.91
					c7.12-1.56,15.61-4.92,18.9-11.99c0.78-1.68,1.14-3.48,1.13-5.32c0-0.56-4-4.05-3.81-3.86c-3.1-3.06-6.23-6.1-9.37-9.12
					c-3.14-3.03-6.27-6.05-9.45-9.05c-0.7-0.66-1.4-1.32-2.11-1.98C159.45,306.18,158.83,305.62,158.17,305.09L158.17,305.09z"/>
			</g>
			<g>
				<path fill="#DEB94E" stroke="#000000" stroke-width="7" stroke-miterlimit="10" d="M204.3,352.49
					c2.98,9.42,2.07,19.85-2.36,28.67c-2.26,4.5-5.51,8.08-8.9,11.74c-3.05,3.3-6.36,7.02-6.95,11.65
					c-0.66,5.22,2.84,9.48,3.94,14.35c1,4.44-0.56,8.68-3.05,12.34c-2.67,3.92-6.11,7.23-9.11,10.88
					c-3.01,3.65-5.28,7.76-6.61,12.31c-3.02,10.26-1.34,21.79,4.88,30.54c0.33,0.46,5.59,1.02,5.33,0.98
					c4.3,0.73,8.6,1.42,12.91,2.1c4.31,0.68,8.61,1.36,12.93,1.99c0.95,0.14,1.91,0.28,2.86,0.42c0.83,0.14,1.67,0.24,2.51,0.3
					c-5.51-7.75-7.45-17.66-5.73-26.98c0.87-4.71,2.69-9.26,5.42-13.2c2.67-3.84,6.08-7.1,9.02-10.72c2.71-3.34,5.25-7.2,5.48-11.63
					c0.26-5.18-3.16-9.31-4.11-14.22c-0.95-4.85,1.48-9.11,4.49-12.71c3.11-3.71,6.72-6.95,9.34-11.05
					c6.01-9.39,7.59-21.35,4.24-31.97c-0.09-0.3-5.96-1.08-5.33-0.98c-4.3-0.73-8.6-1.42-12.91-2.1c-4.31-0.68-8.61-1.36-12.93-1.99
					C209.06,353.12,204.38,352.74,204.3,352.49L204.3,352.49z"/>
			</g>
			<g>
				<g>
					<path fill="#DEB94E" stroke="#000000" stroke-width="7" stroke-miterlimit="10" d="M148.8,187.28
						c-6.13,2.43-12.66,5.03-19.39,4.49c-4.95-0.4-10.12-2.67-12.88-6.95c-1.54-2.4-1.66-5.39-3.2-7.76
						c-1.56-2.39-4.63-3.32-7.15-4.33c-3.11-1.24-6.35-2.37-9.73-2.55c-3.16-0.17-6.13,0.66-8.94,2.06
						c-5.01,2.5-9.36,6.38-15.07,7.19c-2.39,0.34-4.98,0.18-7.12-1.03c-2.36-1.33-3.49-3.66-4.2-6.18c-0.77-2.74-1.27-5.5-3.07-7.8
						c-1.69-2.16-4.04-3.7-6.56-4.72c-6.22-2.52-13.09-1.55-19.61-1.46c-15.78,0.21-30.98-4.76-45.79-9.63
						c0.03,0.01-0.14,6.26-0.13,5.42c-0.05,4.36-0.06,8.72-0.05,13.08c0,4.36,0,8.72,0.05,13.08c0.01,0.62-0.21,5.31,0.13,5.42
						c13.18,4.33,26.59,8.73,40.54,9.51c6.92,0.39,14.03-0.91,20.88,0.41c5.39,1.04,10.61,4.1,12.47,9.51
						c0.92,2.67,1.15,5.67,2.81,8.05c1.38,1.98,3.56,3.07,5.91,3.39c5.55,0.74,10.35-2.23,14.87-4.99c2.55-1.56,5.18-3.11,8.1-3.86
						c3.22-0.82,6.53-0.47,9.7,0.42c3.04,0.85,6.21,2.02,9.01,3.49c2.77,1.46,3.67,3.73,4.54,6.59c1.76,5.8,6.71,9.33,12.56,10.39
						c7.33,1.32,14.63-1.59,21.32-4.24c0.25-0.1,0.14-6.12,0.13-5.42c0.05-4.36,0.06-8.72,0.05-13.08c0-4.36,0-8.72-0.05-13.08
						C148.93,192.11,148.62,187.35,148.8,187.28L148.8,187.28z"/>
				</g>
				<g>
					<path fill="#DEB94E" stroke="#000000" stroke-width="7" stroke-miterlimit="10" d="M143.31,253.2
						c-6.17-0.6-12.6-0.88-18.66,0.67c-2.86,0.73-5.64,1.91-7.94,3.78c-2.51,2.04-3.98,4.7-5.14,7.67c-1.31,3.35-2.74,6.38-5.93,8.3
						c-2.79,1.68-6.12,2.3-9.34,2.29c-8.11-0.03-15.49-4.29-23.55-4.79c-7.43-0.46-14.98,1.72-21.03,6.05
						c-2.97,2.13-5.26,5.2-8.44,7.02c-2.59,1.48-5.55,1.66-8.42,1.05c-6.12-1.3-11.4-5.26-17.65-6.1c-3.4-0.46-6.54,0.39-9.4,2.26
						c-2.94,1.91-5.39,4.47-8.31,6.4c-14.08,9.31-32.61,4.11-47.12-1.3c0.04,0.02-0.14,6.25-0.13,5.42
						c-0.05,4.36-0.06,8.72-0.05,13.08c0,4.36,0,8.72,0.05,13.08c0.01,0.63-0.24,5.28,0.13,5.42c13.11,4.88,28.96,9.53,42.55,3.75
						c3.34-1.42,6.15-3.52,8.93-5.82c2.67-2.22,5.5-4.52,9-5.21c6.22-1.22,12.18,2.56,17.75,4.7c2.67,1.03,5.54,1.89,8.43,1.62
						c3.69-0.35,6.3-2.72,8.87-5.17c5.34-5.06,12.05-8.33,19.39-9.12c3.98-0.43,7.91-0.05,11.79,0.89
						c4.04,0.98,7.96,2.41,12.04,3.21c6.2,1.22,14.08,0.66,18.04-4.99c2.3-3.28,2.81-7.43,5.39-10.57c2.03-2.48,4.82-4.17,7.81-5.23
						c6.64-2.35,14.04-2.02,20.94-1.35c-0.04,0,0.19-17.11,0.18-18.49c0-4.36,0-8.72-0.05-13.08
						C143.43,258.07,143.49,253.22,143.31,253.2L143.31,253.2z"/>
				</g>
				<g>
					<path fill="#DEB94E" stroke="#000000" stroke-width="7" stroke-miterlimit="10" d="M158.17,305.09
						c0.02,8.07-7.42,13.15-14.25,15.68c-7.82,2.88-16.52,2.85-23.97,6.88c-3.74,2.02-6.56,5.04-8.4,8.86
						c-1.82,3.78-2.79,7.88-4.39,11.75c-1.56,3.77-3.83,7.13-7.35,9.3c-3.18,1.96-6.89,2.81-10.55,3.32
						c-7.71,1.07-16.11,0.55-23.17,4.31c-1.92,1.02-3.73,2.41-4.85,4.3c-1.37,2.32-1.05,4.87-0.95,7.44
						c0.16,4.3-1.64,8.11-4.74,11.06c-7.43,7.07-18,6.16-27.45,6.72c-2.29,0.14-4.65,0.52-6.54,1.91c-1.85,1.36-2.96,3.44-4.04,5.41
						c-2.1,3.84-4.66,7.33-7.78,10.42c-14.14,14.03-34.58,17.64-53.63,19.4c-2.67,0.25-5.35,0.46-8.03,0.68
						c0.27-0.02,4.23,4.27,3.81,3.86c3.1,3.06,6.23,6.1,9.37,9.12c3.14,3.03,6.27,6.05,9.45,9.05c0.7,0.66,1.4,1.32,2.11,1.98
						c0.6,0.59,1.23,1.16,1.88,1.69c19.57-1.59,40.44-3.46,56.64-15.73c3.52-2.67,6.72-5.78,9.36-9.32c1.29-1.73,2.4-3.55,3.44-5.44
						c1.08-1.97,2.19-4.05,4.04-5.41c3.84-2.84,9.73-1.95,14.22-2.14c4.94-0.21,10.07-0.75,14.58-2.93c3.7-1.79,7.08-4.73,8.79-8.52
						c0.93-2.04,1.21-4.16,1.11-6.39c-0.11-2.48-0.36-4.92,0.96-7.15c2.12-3.58,6.47-5.38,10.32-6.37c3.83-0.99,7.8-1.29,11.73-1.63
						c7.47-0.64,15.87-1.42,20.84-7.8c5.19-6.67,4.98-16.15,10.93-22.38c5.91-6.18,15.17-7.18,23.09-8.91
						c7.12-1.56,15.61-4.92,18.9-11.99c0.78-1.68,1.14-3.48,1.13-5.32c0-0.56-4-4.05-3.81-3.86c-3.1-3.06-6.23-6.1-9.37-9.12
						c-3.14-3.03-6.27-6.05-9.45-9.05c-0.7-0.66-1.4-1.32-2.11-1.98C159.45,306.18,158.83,305.62,158.17,305.09L158.17,305.09z"/>
				</g>
				<g>
					<path fill="#DEB94E" stroke="#000000" stroke-width="7" stroke-miterlimit="10" d="M329.99,151.29
						c7.83,1.98,14.56-4.02,18.66-10.04c4.69-6.89,6.76-15.34,12.47-21.59c2.87-3.14,6.48-5.14,10.63-6
						c4.1-0.85,8.32-0.8,12.46-1.42c4.03-0.6,7.84-1.99,10.8-4.88c2.67-2.61,4.4-6,5.78-9.43c2.9-7.22,4.43-15.5,9.79-21.44
						c1.45-1.61,3.24-3.04,5.35-3.67c2.58-0.77,4.98,0.16,7.45,0.88c4.14,1.19,8.27,0.37,11.87-1.92c8.66-5.5,10.33-15.97,13.16-25
						c0.69-2.18,1.63-4.39,3.44-5.88c1.77-1.46,4.05-2.04,6.23-2.61c4.23-1.11,8.24-2.75,11.99-5.02
						c17.04-10.33,25.49-29.28,31.79-47.34c0.89-2.54,1.74-5.08,2.6-7.62c-0.09,0.25,3.12,5.14,2.82,4.63
						c2.22,3.75,4.41,7.52,6.59,11.3c2.18,3.78,4.36,7.55,6.49,11.35c0.47,0.84,0.94,1.68,1.41,2.52c0.43,0.73,0.83,1.47,1.18,2.23
						c-6.28,18.61-13.14,38.4-28.97,51.15c-3.44,2.77-7.23,5.12-11.31,6.82c-1.99,0.83-4.03,1.47-6.11,2.02
						c-2.18,0.57-4.46,1.14-6.23,2.61c-3.68,3.04-4.25,8.97-5.52,13.28c-1.4,4.75-3.17,9.59-6.37,13.44
						c-2.63,3.16-6.3,5.72-10.39,6.47c-2.21,0.4-4.33,0.17-6.47-0.47c-2.38-0.71-4.69-1.54-7.17-0.8c-3.98,1.19-6.78,4.98-8.68,8.47
						c-1.89,3.48-3.14,7.25-4.41,10.99c-2.43,7.1-5.21,15.06-12.61,18.34c-7.73,3.43-16.88,0.92-24.35,5.19
						c-7.43,4.24-10.64,12.98-14.23,20.24c-3.24,6.53-8.55,13.95-16.21,15.44c-1.82,0.35-3.65,0.26-5.44-0.19
						c-0.54-0.14-2.96-4.86-2.82-4.63c-2.22-3.75-4.41-7.52-6.59-11.3c-2.18-3.78-4.36-7.55-6.49-11.35
						c-0.47-0.84-0.94-1.68-1.41-2.52C330.74,152.8,330.34,152.05,329.99,151.29L329.99,151.29z"/>
				</g>
				<path fill="#DEB94E" stroke="#000000" stroke-width="7" stroke-miterlimit="10" d="M148.18,118.35
					c-1.5-1.67-2.28-3.85-1.81-6.09c0.61-2.87,2.75-5.08,3.15-8.05"/>
				<g>
					<path fill="#DEB94E" stroke="#000000" stroke-width="7" stroke-miterlimit="10" d="M377.4,190.98
						c6.13,2.43,12.66,5.03,19.39,4.49c4.95-0.4,10.12-2.67,12.88-6.95c1.54-2.4,1.66-5.39,3.2-7.76c1.56-2.39,4.63-3.32,7.15-4.33
						c3.11-1.24,6.35-2.37,9.73-2.55c3.16-0.17,6.13,0.66,8.94,2.06c5.01,2.5,9.36,6.38,15.07,7.19c2.39,0.34,4.98,0.18,7.12-1.03
						c2.36-1.33,3.49-3.66,4.2-6.18c0.77-2.74,1.27-5.5,3.07-7.8c1.69-2.16,4.04-3.7,6.56-4.72c6.22-2.52,13.09-1.55,19.61-1.46
						c15.78,0.21,30.98-4.76,45.79-9.63c-0.03,0.01,0.14,6.26,0.13,5.42c0.05,4.36,0.06,8.72,0.05,13.08c0,4.36,0,8.72-0.05,13.08
						c-0.01,0.62,0.21,5.31-0.13,5.42c-13.18,4.33-26.59,8.73-40.54,9.51c-6.92,0.39-14.03-0.91-20.88,0.41
						c-5.39,1.04-10.61,4.1-12.47,9.51c-0.92,2.67-1.15,5.67-2.81,8.05c-1.38,1.98-3.56,3.07-5.91,3.39
						c-5.55,0.74-10.35-2.23-14.87-4.99c-2.55-1.56-5.18-3.11-8.1-3.86c-3.22-0.82-6.53-0.47-9.7,0.42
						c-3.04,0.85-6.21,2.02-9.01,3.49c-2.77,1.46-3.67,3.73-4.54,6.59c-1.76,5.8-6.71,9.33-12.56,10.39
						c-7.33,1.32-14.63-1.59-21.32-4.24c-0.25-0.1-0.14-6.12-0.13-5.42c-0.05-4.36-0.06-8.72-0.05-13.08c0-4.36,0-8.72,0.05-13.08
						C377.28,195.81,377.58,191.05,377.4,190.98L377.4,190.98z"/>
				</g>
				<g>
					<path fill="#DEB94E" stroke="#000000" stroke-width="7" stroke-miterlimit="10" d="M368.1,253.2c6.17-0.6,12.6-0.88,18.66,0.67
						c2.86,0.73,5.64,1.91,7.94,3.78c2.51,2.04,3.98,4.7,5.14,7.67c1.31,3.35,2.74,6.38,5.93,8.3c2.79,1.68,6.12,2.3,9.34,2.29
						c8.11-0.03,15.49-4.29,23.55-4.79c7.43-0.46,14.98,1.72,21.03,6.05c2.97,2.13,5.26,5.2,8.44,7.02
						c2.59,1.48,5.55,1.66,8.42,1.05c6.12-1.3,11.4-5.26,17.65-6.1c3.4-0.46,6.54,0.39,9.4,2.26c2.94,1.91,5.39,4.47,8.31,6.4
						c14.08,9.31,32.61,4.11,47.12-1.3c-0.04,0.02,0.14,6.25,0.13,5.42c0.05,4.36,0.06,8.72,0.05,13.08c0,4.36,0,8.72-0.05,13.08
						c-0.01,0.63,0.24,5.28-0.13,5.42c-13.11,4.88-28.96,9.53-42.55,3.75c-3.34-1.42-6.15-3.52-8.93-5.82
						c-2.67-2.22-5.5-4.52-9-5.21c-6.22-1.22-12.18,2.56-17.75,4.7c-2.67,1.03-5.54,1.89-8.43,1.62c-3.69-0.35-6.3-2.72-8.87-5.17
						c-5.34-5.06-12.05-8.33-19.39-9.12c-3.98-0.43-7.91-0.05-11.79,0.89c-4.04,0.98-7.96,2.41-12.04,3.21
						c-6.2,1.22-14.08,0.66-18.04-4.99c-2.3-3.28-2.81-7.43-5.39-10.57c-2.03-2.48-4.82-4.17-7.81-5.23
						c-6.64-2.35-14.04-2.02-20.94-1.35c0.04,0-0.19-17.11-0.18-18.49c0-4.36,0-8.72,0.05-13.08
						C367.98,258.07,367.92,253.22,368.1,253.2L368.1,253.2z"/>
				</g>
				<g>
					<path fill="#DEB94E" stroke="#000000" stroke-width="7" stroke-miterlimit="10" d="M349.54,312.48
						c-0.02,8.07,7.42,13.15,14.25,15.68c7.82,2.88,16.52,2.85,23.97,6.88c3.74,2.02,6.56,5.04,8.4,8.86
						c1.82,3.78,2.79,7.88,4.39,11.75c1.56,3.77,3.83,7.13,7.35,9.3c3.18,1.96,6.89,2.81,10.55,3.32
						c7.71,1.07,16.11,0.55,23.17,4.31c1.92,1.02,3.73,2.41,4.85,4.3c1.37,2.32,1.05,4.87,0.95,7.44c-0.16,4.3,1.64,8.11,4.74,11.06
						c7.43,7.07,18,6.16,27.45,6.72c2.29,0.14,4.65,0.52,6.54,1.91c1.85,1.36,2.96,3.44,4.04,5.41c2.1,3.84,4.66,7.33,7.78,10.42
						c14.14,14.03,34.58,17.64,53.63,19.4c2.67,0.25,5.35,0.46,8.03,0.68c-0.27-0.02-4.23,4.27-3.81,3.86
						c-3.1,3.06-6.23,6.1-9.37,9.12c-3.14,3.03-6.27,6.05-9.45,9.05c-0.7,0.66-1.4,1.32-2.11,1.98c-0.6,0.59-1.23,1.16-1.88,1.69
						c-19.57-1.59-40.44-3.46-56.64-15.73c-3.52-2.67-6.72-5.78-9.36-9.32c-1.29-1.73-2.4-3.55-3.44-5.44
						c-1.08-1.97-2.19-4.05-4.04-5.41c-3.84-2.84-9.73-1.95-14.22-2.14c-4.95-0.21-10.07-0.75-14.58-2.93
						c-3.7-1.79-7.08-4.73-8.79-8.52c-0.93-2.04-1.21-4.16-1.11-6.39c0.11-2.48,0.36-4.92-0.96-7.15
						c-2.12-3.58-6.47-5.38-10.32-6.37c-3.83-0.99-7.8-1.29-11.73-1.63c-7.47-0.64-15.87-1.42-20.84-7.8
						c-5.19-6.67-4.98-16.15-10.93-22.38c-5.91-6.18-15.17-7.18-23.09-8.91c-7.12-1.56-15.61-4.92-18.9-11.99
						c-0.78-1.68-1.14-3.48-1.13-5.32c0-0.56,4-4.05,3.81-3.86c3.1-3.06,6.23-6.1,9.37-9.12c3.14-3.03,6.27-6.05,9.45-9.05
						c0.7-0.66,1.4-1.32,2.11-1.98C348.26,313.58,348.88,313.01,349.54,312.48L349.54,312.48z"/>
				</g>
				<g>
					<path fill="#DEB94E" stroke="#000000" stroke-width="7" stroke-miterlimit="10" d="M36.66-13.84
						C34.89-5.97,41.05,0.61,47.17,4.55c7.01,4.51,15.51,6.36,21.9,11.91c3.21,2.79,5.31,6.35,6.27,10.48
						c0.95,4.08,1.01,8.3,1.74,12.42c0.71,4.02,2.19,7.79,5.16,10.67c2.68,2.61,6.11,4.24,9.58,5.53c7.3,2.71,15.6,4.03,21.69,9.24
						c1.65,1.41,3.12,3.16,3.8,5.25c0.84,2.56-0.04,4.98-0.69,7.47c-1.09,4.16-0.16,8.27,2.22,11.82
						c5.72,8.51,16.23,9.91,25.33,12.52c2.2,0.63,4.43,1.52,5.97,3.29c1.51,1.73,2.14,4,2.76,6.16c1.22,4.2,2.96,8.17,5.33,11.86
						c10.76,16.77,29.93,24.73,48.14,30.57c2.56,0.82,5.12,1.61,7.69,2.41c-0.26-0.08-5.06,3.25-4.55,2.94
						c-3.69,2.32-7.41,4.6-11.13,6.87c-3.72,2.27-7.44,4.55-11.18,6.78c-0.83,0.49-1.66,0.99-2.49,1.48
						c-0.71,0.45-1.45,0.86-2.2,1.24c-18.76-5.8-38.72-12.15-51.87-27.65c-2.86-3.37-5.3-7.1-7.11-11.13
						c-0.88-1.96-1.58-3.99-2.17-6.05c-0.63-2.16-1.26-4.43-2.76-6.16c-3.13-3.6-9.08-4.02-13.41-5.18
						c-4.78-1.28-9.67-2.92-13.6-6.02c-3.23-2.55-5.88-6.15-6.74-10.22c-0.46-2.2-0.28-4.33,0.3-6.48c0.65-2.4,1.42-4.73,0.61-7.19
						c-1.29-3.95-5.15-6.65-8.69-8.46c-3.53-1.8-7.33-2.95-11.1-4.13c-7.16-2.24-15.19-4.83-18.66-12.13
						C43.7,57,45.97,47.79,41.51,40.42c-4.42-7.31-13.25-10.3-20.6-13.71c-6.61-3.07-14.17-8.19-15.85-15.8
						C4.66,9.1,4.71,7.27,5.11,5.47C5.24,4.92,9.9,2.38,9.67,2.53c3.69-2.32,7.41-4.6,11.13-6.87c3.72-2.27,7.44-4.55,11.18-6.78
						c0.83-0.49,1.66-0.99,2.49-1.48C35.17-13.05,35.91-13.47,36.66-13.84L36.66-13.84z"/>
				</g>
				<g>
				</g>
			</g>
			<g>
				<path fill="#DEB94E" stroke="#000000" stroke-width="7" stroke-miterlimit="10" d="M265.71,362.2
					c7.5,10.21,10.99,23.15,9.69,35.75c-0.33,3.23-1.06,6.34-1.9,9.47c-0.86,3.21-1.7,6.75-0.3,9.94c1.13,2.57,3.44,4.33,5.69,5.87
					c2.32,1.59,4.64,3.09,6.66,5.07c7.87,7.72,11.31,19.78,8.58,30.48c-1.55,6.09-6.1,11.71-5.84,18.2
					c0.24,5.98,5.23,9.68,10.02,12.34c5.15,2.86,11.86,5.65,13.76,11.81c1.15,3.72-0.39,7.59,0.35,11.35
					c0.75,3.77,3.23,6.9,5.57,9.83c0.16,0.21,5.89-1.66,5.22-1.46c4.18-1.23,8.35-2.5,12.52-3.77c4.17-1.28,8.34-2.55,12.49-3.88
					c0.55-0.18,5.02-1.86,5.14-1.71c-2.04-2.55-4.15-5.21-5.18-8.35c-1.14-3.49-0.07-6.91-0.32-10.45
					c-0.41-5.95-5.69-9.61-10.47-12.21c-4.7-2.56-10.38-5.05-12.76-10.21c-2.89-6.27,1.27-12.72,3.57-18.43
					c4.19-10.39,2.2-22.66-4.68-31.45c-1.7-2.17-3.69-4.1-5.93-5.72c-2.28-1.64-4.79-3.01-6.8-5.01
					c-5.17-5.15-1.96-11.77-0.73-17.85c2.81-13.99-0.55-28.95-8.98-40.43c-0.14-0.2-5.92,1.66-5.22,1.46
					c-4.18,1.23-8.35,2.5-12.52,3.77c-4.17,1.28-8.34,2.55-12.49,3.88C270.31,360.67,265.8,362.33,265.71,362.2L265.71,362.2z"/>
			</g>
			<polygon fill="#DEB94E" stroke="#000000" stroke-width="7" stroke-miterlimit="10" points="254.38,134.79 260.2,-145.71 
				274.43,-148.09 278.12,135.14 			"/>
			<g>
				<path fill="#DEB94E" stroke="#000000" stroke-width="7" stroke-miterlimit="10" d="M319.15,154.42
					c-2.98-9.42-2.07-19.85,2.36-28.67c2.26-4.5,5.51-8.08,8.9-11.74c3.05-3.3,6.36-7.02,6.95-11.65c0.66-5.22-2.84-9.48-3.94-14.35
					c-1-4.44,0.56-8.68,3.05-12.34c2.67-3.92,6.11-7.23,9.11-10.88c3.01-3.65,5.28-7.76,6.61-12.31
					c3.02-10.26,1.34-21.79-4.88-30.54c-0.33-0.46-5.59-1.02-5.33-0.98c-4.3-0.73-8.6-1.42-12.91-2.1
					c-4.31-0.68-8.61-1.36-12.93-1.99c-0.95-0.14-1.91-0.28-2.86-0.42c-0.83-0.14-1.67-0.24-2.51-0.3
					c5.51,7.75,7.45,17.66,5.73,26.98c-0.87,4.71-2.69,9.26-5.42,13.2c-2.67,3.84-6.08,7.1-9.02,10.72
					c-2.71,3.34-5.25,7.2-5.48,11.63c-0.26,5.18,3.16,9.31,4.11,14.22c0.95,4.85-1.48,9.11-4.49,12.71
					c-3.11,3.71-6.72,6.95-9.34,11.05c-6.01,9.39-7.59,21.35-4.24,31.97c0.09,0.3,5.96,1.08,5.33,0.98c4.3,0.73,8.6,1.42,12.91,2.1
					c4.31,0.68,8.61,1.36,12.93,1.99C314.39,153.79,319.07,154.17,319.15,154.42L319.15,154.42z"/>
			</g>
			<g>
				<path fill="#DEB94E" stroke="#000000" stroke-width="7" stroke-miterlimit="10" d="M257.74,144.71
					c-7.5-10.21-10.99-23.15-9.69-35.75c0.33-3.23,1.06-6.34,1.9-9.47c0.86-3.21,1.7-6.75,0.3-9.94c-1.13-2.57-3.44-4.33-5.69-5.87
					c-2.32-1.59-4.64-3.09-6.66-5.07c-7.87-7.72-11.31-19.78-8.58-30.48c1.56-6.09,6.1-11.71,5.84-18.2
					c-0.24-5.98-5.23-9.68-10.02-12.34c-5.15-2.86-11.86-5.65-13.76-11.81c-1.15-3.72,0.39-7.59-0.35-11.36
					c-0.75-3.77-3.23-6.9-5.57-9.83c-0.16-0.21-5.89,1.66-5.22,1.46c-4.18,1.23-8.35,2.5-12.52,3.77
					c-4.17,1.28-8.34,2.55-12.49,3.88c-0.55,0.18-5.02,1.86-5.14,1.71c2.04,2.55,4.15,5.21,5.18,8.35
					c1.14,3.49,0.07,6.91,0.32,10.45c0.41,5.95,5.69,9.61,10.47,12.21c4.7,2.56,10.38,5.05,12.76,10.21
					c2.89,6.27-1.27,12.72-3.57,18.43c-4.19,10.39-2.2,22.66,4.68,31.45c1.7,2.17,3.69,4.1,5.93,5.72c2.28,1.64,4.79,3.01,6.8,5.01
					c5.17,5.15,1.96,11.77,0.73,17.85c-2.81,13.99,0.55,28.95,8.98,40.43c0.14,0.2,5.92-1.66,5.22-1.46
					c4.18-1.23,8.35-2.5,12.52-3.77c4.17-1.28,8.34-2.55,12.49-3.88C253.14,146.24,257.65,144.58,257.74,144.71L257.74,144.71z"/>
			</g>
		</g>
		<g>
			<g>
				<circle fill="#DEB94E" cx="259.02" cy="244.26" r="175.98"/>
				<g>
					<path d="M259.02,74.28c45.4,0,88.09,17.68,120.2,49.79c32.11,32.11,49.79,74.79,49.79,120.2s-17.68,88.09-49.79,120.2
						c-32.11,32.11-74.79,49.79-120.2,49.79s-88.09-17.68-120.2-49.79c-32.11-32.11-49.79-74.79-49.79-120.2
						s17.68-88.09,49.79-120.2C170.93,91.96,213.61,74.28,259.02,74.28 M259.02,62.28c-100.51,0-181.98,81.48-181.98,181.98
						s81.48,181.98,181.98,181.98S441,344.77,441,244.26S359.52,62.28,259.02,62.28L259.02,62.28z"/>
				</g>
			</g>
			<g>
				<g>
					<path fill="#DEB94E" d="M141.04,229.46c4.31,4.37,9.65,7.64,15.35,9.9c11.05,4.39,23.32,5,35.12,3.58
						c11.81-1.42,23.28-4.78,34.69-8.13"/>
					<g>
						<path d="M138.92,231.58c17.61,17.66,45.04,16.9,67.6,11.7c6.9-1.59,13.69-3.58,20.48-5.58c3.7-1.09,2.12-6.88-1.6-5.79
							c-21.79,6.4-45.81,13.34-68.01,4.64c-5.29-2.08-10.21-5.19-14.23-9.21C140.43,224.6,136.19,228.85,138.92,231.58
							L138.92,231.58z"/>
					</g>
				</g>
				<g>
					<path fill="#DEB94E" d="M144.19,227.19c11.06,1.08,21.15-6.66,32.22-7.61c3.89-0.33,7.8,0.18,11.65,0.81
						c6.73,1.1,13.39,2.56,19.96,4.36c6.15,1.69,12.28,3.69,18.64,4.18c0.97,0.08,2.15,0.26,2.5,1.16c0.32,0.82-0.28,1.71-0.95,2.29
						c-0.92,0.79-2.05,1.34-3.24,1.58"/>
					<g>
						<path d="M144.19,230.19c11.21,0.99,20.62-6.16,31.4-7.53c5.93-0.75,12.09,0.61,17.89,1.75c6.27,1.24,12.43,2.87,18.58,4.6
							c3.38,0.95,6.77,1.85,10.24,2.39c0.97,0.15,1.95,0.29,2.92,0.4c0.32,0.04,0.63,0.07,0.95,0.1c0.27,0.02,0.54,0.04,0.81,0.07
							c-0.18-0.01-0.17,0,0.04,0.04c0.05,0.01,0.11,0.03,0.16,0.04c-0.74-0.22-1.01-0.9-0.81-2.06c-0.09,0.02-0.24,0.25-0.33,0.3
							c-0.65,0.35-1.13,0.62-1.88,0.79c-1.58,0.37-2.51,2.17-2.1,3.69c0.44,1.62,2.11,2.47,3.69,2.1c3.24-0.76,7.51-3.67,6.29-7.56
							c-1.18-3.76-5.76-3.27-8.86-3.8c-6.87-1.18-13.5-3.53-20.27-5.16c-6.92-1.67-14.06-3.23-21.17-3.76
							c-6.56-0.49-12.67,1.16-18.78,3.39c-6.07,2.21-12.22,4.79-18.79,4.21c-1.62-0.14-3,1.48-3,3
							C141.19,228.93,142.57,230.04,144.19,230.19L144.19,230.19z"/>
					</g>
				</g>
				<g>
					<path fill="#DEB94E" d="M169.61,240.12c-1.87-1.06-2.55-3.42-2.72-5.56c-0.13-1.7-0.06-3.41,0.2-5.1
						c0.52-3.42,2.12-7.07,5.34-8.32"/>
					<g>
						<path d="M171.12,237.53c-0.22-0.14-0.26-0.18-0.04,0.01c-0.13-0.11-0.25-0.24-0.37-0.36c0.37,0.35,0.01,0.03-0.08-0.12
							c-0.09-0.15-0.17-0.31-0.26-0.46c-0.22-0.39,0.13,0.41-0.02-0.03c-0.06-0.17-0.12-0.34-0.17-0.52
							c-0.12-0.4-0.19-0.8-0.27-1.21c0.06,0.29,0.02,0.26,0-0.02c-0.02-0.21-0.04-0.42-0.05-0.63c-0.03-0.55-0.04-1.09-0.04-1.64
							c0.01-0.85,0.09-1.95,0.2-2.56c0.12-0.71,0.28-1.42,0.5-2.11c0.07-0.22,0.14-0.43,0.22-0.65c0.02-0.05,0.22-0.57,0.1-0.27
							c-0.12,0.3,0.1-0.21,0.12-0.26c0.08-0.16,0.16-0.32,0.25-0.48c0.19-0.35,0.41-0.68,0.63-1.01c-0.31,0.45,0.22-0.25,0.36-0.39
							c0.12-0.12,0.25-0.24,0.37-0.36c0.39-0.37-0.18,0.07,0.1-0.08c0.18-0.09,1.08-0.58,0.55-0.36c1.45-0.6,2.64-2.02,2.1-3.69
							c-0.45-1.39-2.14-2.74-3.69-2.1c-4.35,1.79-6.73,5.89-7.43,10.42c-0.75,4.79-0.79,11.18,3.9,14.05
							c1.34,0.82,3.36,0.34,4.1-1.08C172.97,240.18,172.56,238.41,171.12,237.53L171.12,237.53z"/>
					</g>
				</g>
				<g>
					<path fill="#DEB94E" d="M192.15,241.47c1.05-0.66,2.09-1.32,3.14-1.97c0.78-0.49,1.57-0.99,2.15-1.7
						c0.53-0.64,0.85-1.42,1.11-2.21c1.33-4.04,0.96-8.61-1.01-12.38"/>
					<g>
						<path d="M193.67,244.06c1.8-1.13,3.78-2.17,5.37-3.6c1.69-1.52,2.5-3.86,2.92-6.03c0.83-4.37,0.2-8.77-1.82-12.74
							c-0.71-1.4-2.8-1.92-4.1-1.08c-1.43,0.92-1.84,2.61-1.08,4.1c0.1,0.18,0.19,0.37,0.28,0.56c0.15,0.33,0.17,0.38,0.07,0.14
							c0.16,0.38,0.29,0.78,0.42,1.17c0.25,0.79,0.44,1.6,0.55,2.42c-0.07-0.5,0.04,0.64,0.05,0.75c0.02,0.41,0.03,0.83,0.02,1.24
							c-0.01,0.42-0.04,0.83-0.08,1.24c-0.04,0.37-0.05,0.41-0.01,0.13c-0.02,0.15-0.05,0.31-0.08,0.46
							c-0.15,0.77-0.35,1.51-0.6,2.25c-0.15,0.44-0.4,0.83-0.88,1.24c0.31-0.26-0.54,0.36-0.64,0.42c-0.37,0.24-0.74,0.47-1.12,0.7
							c-0.76,0.48-1.52,0.96-2.28,1.44c-1.33,0.84-1.97,2.71-1.08,4.1C190.42,244.31,192.25,244.95,193.67,244.06L193.67,244.06z"/>
					</g>
				</g>
				<g>
					<path fill="#DEB94E" d="M179.87,231.01c-0.04-0.89,0.53-1.83,1.39-2.02s1.86,0.61,1.7,1.49c-0.15,0.82-1.07,1.23-1.88,1.46
						c-0.29,0.08-0.61,0.16-0.9,0.05c-0.67-0.24-0.66-1.22-0.35-1.86c0.42-0.9,1.22-1.66,2.19-1.87c0.97-0.22,2.09,0.2,2.55,1.08
						c0.46,0.88,0.06,2.15-0.88,2.48c-0.73,0.26-1.61-0.11-1.99-0.79s-0.26-1.58,0.25-2.17c0.2-0.23,0.45-0.42,0.74-0.51
						c0.67-0.2,1.42,0.22,1.73,0.85s0.22,1.39-0.08,2.02c-0.53,1.08-1.73,1.8-2.93,1.76c-0.3-0.01-0.62-0.07-0.82-0.29
						c-0.26-0.28-0.25-0.72-0.16-1.09c0.37-1.58,1.84-2.85,3.46-2.97c0.18-0.01,0.37-0.01,0.53,0.08c0.24,0.13,0.33,0.43,0.37,0.69
						c0.18,1.04-0.07,2.21-0.87,2.89c-0.8,0.68-2.2,0.65-2.79-0.23c-0.36-0.54-0.35-1.25-0.2-1.88c0.2-0.86,0.63-1.66,1.24-2.3
						c0.2-0.21,0.46-0.42,0.76-0.39c0.28,0.03,0.49,0.26,0.64,0.5c0.92,1.5,0.01,3.76-1.68,4.22c-0.68,0.18-1.46,0.08-1.98-0.39
						c-0.52-0.47-0.67-1.35-0.22-1.89c0.36-0.44,1-0.56,1.56-0.46c0.89,0.17,1.67,0.97,1.65,1.87c-0.02,0.91-1.03,1.7-1.87,1.36
						c-0.66-0.26-0.97-1.07-0.86-1.77c0.11-0.7,0.56-1.3,1.05-1.81c0.57-0.59,1.31-1.13,2.13-1.09c1.05,0.05,1.88,1.15,1.73,2.19
						s-1.18,1.84-2.22,1.84c-0.76,0-1.6-0.52-1.59-1.28"/>
					<g>
						<path d="M182.87,231.01c0-0.13,0-0.25,0.02-0.38c-0.04,0.27-0.07,0.53-0.11,0.8c0.03-0.18,0.07-0.35,0.14-0.52
							c-0.1,0.24-0.2,0.48-0.3,0.72c0.07-0.17,0.16-0.32,0.26-0.46c-0.16,0.2-0.31,0.4-0.47,0.61c0.11-0.14,0.23-0.26,0.37-0.37
							c-0.2,0.16-0.4,0.31-0.61,0.47c0.1-0.07,0.21-0.13,0.32-0.19c-0.24,0.1-0.48,0.2-0.72,0.3c0.12-0.05,0.23-0.08,0.36-0.11
							c-0.27,0.04-0.53,0.07-0.8,0.11c0.12-0.02,0.24-0.02,0.37,0c-0.27-0.04-0.53-0.07-0.8-0.11c0.12,0.02,0.24,0.05,0.36,0.09
							c-0.24-0.1-0.48-0.2-0.72-0.3c0.14,0.06,0.26,0.13,0.38,0.22c-0.2-0.16-0.4-0.31-0.61-0.47c0.1,0.08,0.18,0.16,0.26,0.26
							c-0.16-0.2-0.31-0.4-0.47-0.61c0.07,0.1,0.13,0.2,0.18,0.31c-0.1-0.24-0.2-0.48-0.3-0.72c0.04,0.09,0.06,0.18,0.08,0.27
							c-0.04-0.27-0.07-0.53-0.11-0.8c0.01,0.1,0.01,0.19,0.01,0.28c0.04-0.27,0.07-0.53,0.11-0.8c-0.02,0.12-0.05,0.23-0.09,0.35
							c0.1-0.24,0.2-0.48,0.3-0.72c-0.05,0.11-0.11,0.2-0.18,0.3c0.16-0.2,0.31-0.4,0.47-0.61c-0.09,0.11-0.2,0.21-0.31,0.3
							c0.2-0.16,0.4-0.31,0.61-0.47c-0.2,0.15-0.42,0.27-0.66,0.37c0.24-0.1,0.48-0.2,0.72-0.3c-0.35,0.14-0.72,0.27-1.1,0.32
							c0.27-0.04,0.53-0.07,0.8-0.11c-0.09,0.01-0.18,0.01-0.27,0c0.27,0.04,0.53,0.07,0.8,0.11c-0.08-0.02-0.16-0.03-0.23-0.07
							c0.24,0.1,0.48,0.2,0.72,0.3c-0.06-0.03-0.1-0.06-0.15-0.09c0.2,0.16,0.4,0.31,0.61,0.47c-0.05-0.04-0.08-0.08-0.12-0.12
							c0.16,0.2,0.31,0.4,0.47,0.61c-0.05-0.07-0.09-0.13-0.12-0.2c0.1,0.24,0.2,0.48,0.3,0.72c-0.04-0.1-0.06-0.2-0.08-0.3
							c0.04,0.27,0.07,0.53,0.11,0.8c-0.02-0.16-0.02-0.31,0-0.47c-0.04,0.27-0.07,0.53-0.11,0.8c0.03-0.2,0.08-0.4,0.16-0.59
							c-0.1,0.24-0.2,0.48-0.3,0.72c0.12-0.27,0.27-0.52,0.45-0.75c-0.16,0.2-0.31,0.4-0.47,0.61c0.18-0.23,0.39-0.44,0.62-0.63
							c-0.2,0.16-0.4,0.31-0.61,0.47c0.21-0.16,0.44-0.3,0.69-0.41c-0.24,0.1-0.48,0.2-0.72,0.3c0.22-0.09,0.45-0.15,0.68-0.18
							c-0.27,0.04-0.53,0.07-0.8,0.11c0.21-0.02,0.41-0.02,0.61,0c-0.27-0.04-0.53-0.07-0.8-0.11c0.23,0.03,0.45,0.09,0.66,0.18
							c-0.24-0.1-0.48-0.2-0.72-0.3c0.19,0.08,0.36,0.18,0.52,0.31c-0.2-0.16-0.4-0.31-0.61-0.47c0.14,0.11,0.26,0.23,0.37,0.37
							c-0.16-0.2-0.31-0.4-0.47-0.61c0.09,0.12,0.16,0.25,0.22,0.38c-0.1-0.24-0.2-0.48-0.3-0.72c0.05,0.13,0.09,0.26,0.11,0.4
							c-0.04-0.27-0.07-0.53-0.11-0.8c0.02,0.19,0.03,0.37,0,0.55c0.04-0.27,0.07-0.53,0.11-0.8c-0.03,0.16-0.07,0.31-0.12,0.47
							c0.1-0.24,0.2-0.48,0.3-0.72c-0.06,0.15-0.14,0.28-0.23,0.42c0.16-0.2,0.31-0.4,0.47-0.61c-0.08,0.11-0.18,0.2-0.28,0.29
							c0.2-0.16,0.4-0.31,0.61-0.47c-0.11,0.08-0.22,0.15-0.35,0.21c0.24-0.1,0.48-0.2,0.72-0.3c-0.12,0.04-0.23,0.07-0.35,0.09
							c0.27-0.04,0.53-0.07,0.8-0.11c-0.15,0.02-0.29,0.01-0.44,0c0.27,0.04,0.53,0.07,0.8,0.11c-0.15-0.03-0.29-0.07-0.43-0.12
							c0.24,0.1,0.48,0.2,0.72,0.3c-0.14-0.06-0.27-0.14-0.39-0.23c0.2,0.16,0.4,0.31,0.61,0.47c-0.12-0.09-0.22-0.2-0.32-0.32
							c0.16,0.2,0.31,0.4,0.47,0.61c-0.08-0.11-0.14-0.21-0.2-0.33c0.1,0.24,0.2,0.48,0.3,0.72c-0.06-0.15-0.1-0.3-0.13-0.46
							c0.04,0.27,0.07,0.53,0.11,0.8c-0.02-0.19-0.02-0.37,0-0.56c-0.04,0.27-0.07,0.53-0.11,0.8c0.03-0.19,0.08-0.36,0.15-0.54
							c-0.1,0.24-0.2,0.48-0.3,0.72c0.07-0.15,0.15-0.28,0.25-0.41c-0.16,0.2-0.31,0.4-0.47,0.61c0.11-0.13,0.22-0.24,0.35-0.35
							c-0.2,0.16-0.4,0.31-0.61,0.47c0.09-0.06,0.18-0.12,0.29-0.17c-0.24,0.1-0.48,0.2-0.72,0.3c0.1-0.04,0.2-0.07,0.3-0.09
							c-0.27,0.04-0.53,0.07-0.8,0.11c0.13-0.02,0.25-0.02,0.38,0c-0.27-0.04-0.53-0.07-0.8-0.11c0.13,0.02,0.25,0.06,0.37,0.1
							c-0.24-0.1-0.48-0.2-0.72-0.3c0.12,0.05,0.23,0.12,0.34,0.19c-0.2-0.16-0.4-0.31-0.61-0.47c0.12,0.1,0.23,0.2,0.33,0.33
							c-0.16-0.2-0.31-0.4-0.47-0.61c0.08,0.11,0.14,0.22,0.2,0.35c-0.1-0.24-0.2-0.48-0.3-0.72c0.07,0.17,0.11,0.34,0.14,0.52
							c-0.04-0.27-0.07-0.53-0.11-0.8c0.02,0.18,0.02,0.36,0,0.54c0.04-0.27,0.07-0.53,0.11-0.8c-0.03,0.24-0.09,0.48-0.18,0.71
							c0.1-0.24,0.2-0.48,0.3-0.72c-0.1,0.23-0.22,0.44-0.37,0.64c0.16-0.2,0.31-0.4,0.47-0.61c-0.18,0.23-0.39,0.44-0.62,0.62
							c0.2-0.16,0.4-0.31,0.61-0.47c-0.22,0.16-0.45,0.29-0.69,0.4c0.24-0.1,0.48-0.2,0.72-0.3c-0.27,0.11-0.55,0.19-0.85,0.23
							c0.27-0.04,0.53-0.07,0.8-0.11c-0.24,0.03-0.48,0.03-0.73,0c0.27,0.04,0.53,0.07,0.8,0.11c-0.11-0.02-0.21-0.05-0.31-0.09
							c0.24,0.1,0.48,0.2,0.72,0.3c-0.07-0.04-0.14-0.07-0.2-0.13c0.2,0.16,0.4,0.31,0.61,0.47c-0.04-0.04-0.08-0.07-0.11-0.12
							c0.16,0.2,0.31,0.4,0.47,0.61c-0.03-0.04-0.06-0.09-0.08-0.14c0.1,0.24,0.2,0.48,0.3,0.72c-0.03-0.08-0.05-0.15-0.07-0.23
							c0.04,0.27,0.07,0.53,0.11,0.8c-0.02-0.14-0.02-0.28,0-0.42c-0.04,0.27-0.07,0.53-0.11,0.8c0.04-0.29,0.13-0.57,0.24-0.84
							c-0.1,0.24-0.2,0.48-0.3,0.72c0.13-0.29,0.28-0.56,0.47-0.81c-0.16,0.2-0.31,0.4-0.47,0.61c0.23-0.29,0.48-0.55,0.77-0.78
							c-0.2,0.16-0.4,0.31-0.61,0.47c0.27-0.21,0.57-0.38,0.88-0.51c-0.24,0.1-0.48,0.2-0.72,0.3c0.29-0.12,0.59-0.2,0.9-0.25
							c-0.27,0.04-0.53,0.07-0.8,0.11c0.17-0.02,0.34-0.04,0.51-0.03c-0.27-0.04-0.53-0.07-0.8-0.11c0.06,0.01,0.12,0.02,0.17,0.04
							c-0.24-0.1-0.48-0.2-0.72-0.3c0.05,0.02,0.1,0.04,0.14,0.08c-0.2-0.16-0.4-0.31-0.61-0.47c0.04,0.03,0.07,0.06,0.1,0.1
							c-0.16-0.2-0.31-0.4-0.47-0.61c0.04,0.06,0.08,0.12,0.11,0.19c-0.1-0.24-0.2-0.48-0.3-0.72c0.07,0.17,0.1,0.34,0.12,0.52
							c-0.04-0.27-0.07-0.53-0.11-0.8c0.04,0.33,0.04,0.65,0,0.98c0.04-0.27,0.07-0.53,0.11-0.8c-0.04,0.27-0.11,0.53-0.21,0.78
							c0.1-0.24,0.2-0.48,0.3-0.72c-0.09,0.22-0.21,0.43-0.35,0.62c0.16-0.2,0.31-0.4,0.47-0.61c-0.12,0.14-0.24,0.27-0.38,0.39
							c0.2-0.16,0.4-0.31,0.61-0.47c-0.15,0.11-0.3,0.2-0.48,0.27c0.24-0.1,0.48-0.2,0.72-0.3c-0.17,0.07-0.35,0.11-0.53,0.14
							c0.27-0.04,0.53-0.07,0.8-0.11c-0.18,0.02-0.36,0.02-0.55,0c0.27,0.04,0.53,0.07,0.8,0.11c-0.18-0.03-0.35-0.07-0.52-0.14
							c0.24,0.1,0.48,0.2,0.72,0.3c-0.12-0.06-0.23-0.12-0.34-0.2c0.2,0.16,0.4,0.31,0.61,0.47c-0.11-0.09-0.2-0.18-0.28-0.29
							c0.16,0.2,0.31,0.4,0.47,0.61c-0.08-0.12-0.15-0.24-0.2-0.37c0.1,0.24,0.2,0.48,0.3,0.72c-0.05-0.14-0.09-0.28-0.11-0.42
							c0.04,0.27,0.07,0.53,0.11,0.8c-0.04-0.27-0.03-0.53,0-0.8c-0.04,0.27-0.07,0.53-0.11,0.8c0.06-0.39,0.17-0.77,0.32-1.13
							c-0.1,0.24-0.2,0.48-0.3,0.72c0.17-0.39,0.38-0.76,0.64-1.1c-0.16,0.2-0.31,0.4-0.47,0.61c0.17-0.22,0.34-0.42,0.55-0.6
							c-0.2,0.16-0.4,0.31-0.61,0.47c0.07-0.06,0.14-0.1,0.22-0.14c-0.24,0.1-0.48,0.2-0.72,0.3c0.05-0.02,0.11-0.04,0.16-0.06
							c-0.27,0.04-0.53,0.07-0.8,0.11c0.06-0.01,0.11-0.02,0.17-0.01c-0.27-0.04-0.53-0.07-0.8-0.11c0.05,0,0.1,0.02,0.15,0.03
							c-0.24-0.1-0.48-0.2-0.72-0.3c0.07,0.03,0.13,0.07,0.19,0.11c-0.2-0.16-0.4-0.31-0.61-0.47c0.08,0.07,0.15,0.14,0.21,0.23
							c-0.16-0.2-0.31-0.4-0.47-0.61c0.1,0.13,0.17,0.27,0.24,0.43c-0.1-0.24-0.2-0.48-0.3-0.72c0.09,0.23,0.16,0.46,0.19,0.7
							c-0.04-0.27-0.07-0.53-0.11-0.8c0.03,0.24,0.03,0.48,0,0.73c0.04-0.27,0.07-0.53,0.11-0.8c-0.04,0.29-0.12,0.57-0.23,0.84
							c0.1-0.24,0.2-0.48,0.3-0.72c-0.11,0.25-0.24,0.48-0.4,0.69c0.16-0.2,0.31-0.4,0.47-0.61c-0.15,0.19-0.32,0.36-0.51,0.52
							c0.2-0.16,0.4-0.31,0.61-0.47c-0.18,0.13-0.36,0.25-0.57,0.34c0.24-0.1,0.48-0.2,0.72-0.3c-0.21,0.09-0.42,0.14-0.65,0.17
							c0.27-0.04,0.53-0.07,0.8-0.11c-0.2,0.02-0.39,0.02-0.59,0c0.27,0.04,0.53,0.07,0.8,0.11c-0.2-0.03-0.38-0.07-0.56-0.15
							c0.24,0.1,0.48,0.2,0.72,0.3c-0.13-0.06-0.25-0.12-0.36-0.2c0.2,0.16,0.4,0.31,0.61,0.47c-0.11-0.08-0.2-0.17-0.28-0.27
							c0.16,0.2,0.31,0.4,0.47,0.61c-0.08-0.1-0.14-0.21-0.19-0.32c0.1,0.24,0.2,0.48,0.3,0.72c-0.06-0.14-0.1-0.28-0.12-0.43
							c0.04,0.27,0.07,0.53,0.11,0.8c-0.01-0.13-0.01-0.25,0-0.37c-0.04,0.27-0.07,0.53-0.11,0.8c0.02-0.12,0.05-0.24,0.1-0.35
							c-0.1,0.24-0.2,0.48-0.3,0.72c0.04-0.09,0.09-0.17,0.15-0.25c-0.16,0.2-0.31,0.4-0.47,0.61c0.07-0.08,0.14-0.15,0.22-0.21
							c-0.2,0.16-0.4,0.31-0.61,0.47c0.08-0.06,0.17-0.11,0.26-0.15c-0.24,0.1-0.48,0.2-0.72,0.3c0.15-0.06,0.29-0.1,0.45-0.12
							c-0.27,0.04-0.53,0.07-0.8,0.11c0.18-0.02,0.36-0.02,0.55,0.01c-0.27-0.04-0.53-0.07-0.8-0.11c0.15,0.03,0.3,0.07,0.45,0.12
							c-0.24-0.1-0.48-0.2-0.72-0.3c0.19,0.08,0.37,0.19,0.54,0.31c-0.2-0.16-0.4-0.31-0.61-0.47c0.14,0.12,0.27,0.24,0.38,0.39
							c-0.16-0.2-0.31-0.4-0.47-0.61c0.09,0.13,0.17,0.25,0.23,0.4c-0.1-0.24-0.2-0.48-0.3-0.72c0.06,0.14,0.1,0.29,0.12,0.44
							c-0.04-0.27-0.07-0.53-0.11-0.8c0.01,0.13,0.01,0.25,0,0.38c0.04-0.27,0.07-0.53,0.11-0.8c-0.02,0.12-0.05,0.23-0.1,0.35
							c0.1-0.24,0.2-0.48,0.3-0.72c-0.05,0.11-0.11,0.22-0.18,0.32c0.16-0.2,0.31-0.4,0.47-0.61c-0.09,0.12-0.19,0.22-0.31,0.31
							c0.2-0.16,0.4-0.31,0.61-0.47c-0.12,0.09-0.24,0.16-0.37,0.22c0.24-0.1,0.48-0.2,0.72-0.3c-0.11,0.04-0.22,0.07-0.34,0.09
							c0.27-0.04,0.53-0.07,0.8-0.11c-0.09,0.01-0.19,0.01-0.28,0c0.27,0.04,0.53,0.07,0.8,0.11c-0.1-0.01-0.19-0.04-0.28-0.07
							c0.24,0.1,0.48,0.2,0.72,0.3c-0.11-0.05-0.21-0.11-0.31-0.18c0.2,0.16,0.4,0.31,0.61,0.47c-0.07-0.06-0.14-0.13-0.2-0.2
							c0.16,0.2,0.31,0.4,0.47,0.61c-0.09-0.12-0.16-0.24-0.22-0.37c0.1,0.24,0.2,0.48,0.3,0.72c-0.07-0.16-0.11-0.33-0.13-0.5
							c0.04,0.27,0.07,0.53,0.11,0.8c-0.02-0.15-0.02-0.29,0-0.44c-0.04,0.27-0.07,0.53-0.11,0.8c0.03-0.23,0.1-0.45,0.19-0.66
							c-0.1,0.24-0.2,0.48-0.3,0.72c0.12-0.27,0.28-0.52,0.46-0.75c-0.16,0.2-0.31,0.4-0.47,0.61c0.28-0.35,0.59-0.67,0.94-0.95
							c-0.2,0.16-0.4,0.31-0.61,0.47c0.24-0.18,0.48-0.34,0.76-0.45c-0.24,0.1-0.48,0.2-0.72,0.3c0.16-0.06,0.32-0.11,0.5-0.14
							c-0.27,0.04-0.53,0.07-0.8,0.11c0.17-0.02,0.33-0.02,0.49,0c-0.27-0.04-0.53-0.07-0.8-0.11c0.15,0.02,0.28,0.06,0.42,0.12
							c-0.24-0.1-0.48-0.2-0.72-0.3c0.13,0.06,0.26,0.14,0.38,0.22c-0.2-0.16-0.4-0.31-0.61-0.47c0.14,0.11,0.26,0.23,0.37,0.37
							c-0.16-0.2-0.31-0.4-0.47-0.61c0.11,0.14,0.19,0.29,0.27,0.45c-0.1-0.24-0.2-0.48-0.3-0.72c0.07,0.16,0.12,0.33,0.14,0.5
							c-0.04-0.27-0.07-0.53-0.11-0.8c0.02,0.18,0.02,0.34,0,0.52c0.04-0.27,0.07-0.53,0.11-0.8c-0.03,0.15-0.07,0.29-0.12,0.44
							c0.1-0.24,0.2-0.48,0.3-0.72c-0.07,0.16-0.16,0.31-0.26,0.46c0.16-0.2,0.31-0.4,0.47-0.61c-0.13,0.16-0.27,0.3-0.43,0.43
							c0.2-0.16,0.4-0.31,0.61-0.47c-0.16,0.12-0.34,0.23-0.53,0.31c0.24-0.1,0.48-0.2,0.72-0.3c-0.19,0.08-0.38,0.14-0.59,0.17
							c0.27-0.04,0.53-0.07,0.8-0.11c-0.18,0.02-0.35,0.03-0.53,0.01c0.27,0.04,0.53,0.07,0.8,0.11c-0.18-0.03-0.34-0.07-0.51-0.14
							c0.24,0.1,0.48,0.2,0.72,0.3c-0.14-0.06-0.26-0.13-0.38-0.22c0.2,0.16,0.4,0.31,0.61,0.47c-0.09-0.08-0.18-0.16-0.25-0.25
							c0.16,0.2,0.31,0.4,0.47,0.61c-0.06-0.08-0.1-0.15-0.14-0.24c0.1,0.24,0.2,0.48,0.3,0.72c-0.04-0.09-0.06-0.17-0.08-0.27
							c0.04,0.27,0.07,0.53,0.11,0.8c-0.01-0.05-0.01-0.1-0.01-0.14c-0.03-0.79-0.32-1.56-0.88-2.12c-0.52-0.52-1.37-0.91-2.12-0.88
							c-0.78,0.03-1.58,0.29-2.12,0.88c-0.53,0.58-0.91,1.32-0.88,2.12c0.02,0.58,0.13,1.05,0.35,1.57
							c0.22,0.51,0.49,0.97,0.91,1.36c0.6,0.56,1.4,1.05,2.21,1.21c0.41,0.08,0.86,0.16,1.28,0.13c0.44-0.03,0.9-0.07,1.32-0.21
							c0.85-0.28,1.59-0.7,2.24-1.32c0.63-0.6,1.05-1.36,1.32-2.17c0.14-0.4,0.18-0.86,0.2-1.28c0.03-0.43-0.06-0.9-0.15-1.31
							c-0.09-0.4-0.28-0.81-0.47-1.17c-0.19-0.38-0.49-0.73-0.76-1.04c-0.56-0.64-1.34-1.06-2.13-1.33
							c-0.09-0.03-0.19-0.05-0.29-0.07c-0.33-0.06-0.69-0.12-1.03-0.12c-0.22,0-0.44,0.04-0.66,0.07c-0.25,0.03-0.49,0.06-0.73,0.13
							c-0.92,0.3-1.61,0.76-2.35,1.37c-0.53,0.44-0.95,0.99-1.36,1.55c-0.14,0.19-0.27,0.39-0.37,0.6c-0.2,0.4-0.41,0.85-0.5,1.3
							c-0.17,0.85-0.23,1.77,0.07,2.6c0.38,1.06,0.95,1.88,1.9,2.51c0.34,0.23,0.75,0.39,1.14,0.49c0.69,0.18,1.36,0.15,2.05,0.01
							c0.39-0.08,0.77-0.26,1.12-0.44c0.09-0.05,0.16-0.1,0.24-0.16c0.27-0.2,0.56-0.4,0.8-0.64c0.28-0.3,0.55-0.63,0.74-1
							c0.35-0.68,0.47-1.18,0.54-1.93c0.04-0.43-0.04-0.87-0.13-1.29c-0.08-0.42-0.28-0.84-0.49-1.21c-0.42-0.75-1.1-1.4-1.83-1.84
							c-0.76-0.46-1.63-0.68-2.51-0.71c-0.43-0.02-0.89,0.06-1.3,0.16c-0.42,0.1-0.84,0.28-1.21,0.51c-0.9,0.58-1.64,1.48-1.87,2.55
							c-0.24,1.13-0.09,2.24,0.45,3.26c0.19,0.37,0.46,0.71,0.76,1c0.31,0.3,0.69,0.6,1.09,0.79c0.82,0.39,1.7,0.65,2.62,0.58
							c0.9-0.07,1.69-0.27,2.48-0.71c0.49-0.28,0.97-0.65,1.34-1.08c0.38-0.44,0.74-0.9,0.98-1.43c0.16-0.35,0.34-0.74,0.44-1.13
							c0.11-0.42,0.16-0.86,0.2-1.29c0.06-0.58-0.03-1.19-0.17-1.75c-0.2-0.83-0.62-1.51-1.15-2.16c-0.07-0.08-0.13-0.16-0.21-0.23
							c-0.23-0.2-0.49-0.42-0.77-0.57c-0.29-0.15-0.58-0.29-0.9-0.35c-0.03-0.01-0.61-0.12-0.88-0.11
							c-0.27,0.01-0.67,0.05-0.92,0.13c-1.85,0.58-2.94,2.28-3.63,3.99c-0.27,0.67-0.37,1.34-0.44,2.06
							c-0.09,0.93,0.17,1.85,0.57,2.68c0.18,0.38,0.47,0.75,0.77,1.05c0.13,0.14,0.3,0.25,0.45,0.37c0.17,0.13,0.34,0.28,0.52,0.38
							c0.75,0.4,1.54,0.61,2.39,0.63c0.88,0.01,1.64-0.23,2.42-0.59c0.79-0.37,1.37-1.03,1.87-1.71c0.38-0.51,0.64-1.14,0.79-1.76
							c0.16-0.63,0.25-1.32,0.2-1.97c-0.1-1.13-0.34-2.21-1.18-3.05c-0.45-0.45-1.07-0.81-1.69-0.94c-0.8-0.16-1.34-0.1-2.14,0.03
							c-1.25,0.21-2.41,0.91-3.34,1.76c-0.46,0.42-0.87,0.95-1.19,1.48c-0.33,0.55-0.61,1.17-0.75,1.8
							c-0.26,1.13-0.21,2.29,0.39,3.31c0.33,0.56,0.84,1.05,1.41,1.35c0.66,0.35,1.25,0.46,1.99,0.52c0.65,0.05,1.36-0.06,1.98-0.27
							c0.9-0.31,1.53-0.7,2.27-1.29c1.25-1,1.92-2.59,2.03-4.16c0.03-0.44-0.05-0.9-0.13-1.34c-0.09-0.46-0.28-0.93-0.52-1.33
							c-0.16-0.27-0.38-0.52-0.58-0.77c-0.07-0.08-0.13-0.16-0.21-0.23c-0.32-0.29-0.67-0.57-1.06-0.76
							c-0.69-0.33-1.16-0.45-1.92-0.52c-0.1-0.01-0.2-0.01-0.3,0c-0.35,0.03-0.73,0.06-1.06,0.17c-1.11,0.38-1.93,1.06-2.58,2.02
							c-0.24,0.35-0.4,0.78-0.54,1.18c-0.15,0.42-0.19,0.91-0.22,1.35c-0.03,0.43,0.06,0.9,0.15,1.31c0.02,0.09,0.05,0.18,0.08,0.27
							c0.12,0.32,0.25,0.67,0.42,0.97c0.21,0.35,0.47,0.7,0.78,0.98c0.31,0.28,0.66,0.57,1.04,0.76c0.38,0.19,0.79,0.38,1.22,0.46
							c0.77,0.14,1.26,0.15,2.04,0c0.4-0.07,0.8-0.25,1.16-0.44c0.36-0.19,0.7-0.46,0.99-0.74c0.58-0.57,1-1.33,1.23-2.11
							c0.24-0.83,0.22-1.72,0.03-2.55c-0.19-0.8-0.67-1.58-1.25-2.17c-0.62-0.63-1.36-1.02-2.18-1.31c-0.3-0.11-0.61-0.14-0.92-0.18
							c-0.35-0.05-0.66-0.09-1.01-0.06c-0.91,0.09-1.71,0.29-2.52,0.75c-0.37,0.21-0.71,0.49-1.03,0.77
							c-0.17,0.14-0.32,0.29-0.46,0.45c-0.61,0.73-1.01,1.37-1.35,2.26c-0.06,0.15-0.1,0.3-0.12,0.46c-0.07,0.42-0.16,0.87-0.12,1.3
							c0.09,1.04,0.4,2.06,1.21,2.78c0.48,0.43,1.04,0.77,1.67,0.93c0.73,0.18,1.41,0.13,2.14-0.03c0.62-0.14,1.24-0.4,1.8-0.68
							c0.78-0.38,1.39-1,1.88-1.7c0.56-0.81,0.71-1.83,0.58-2.79c-0.13-0.95-0.57-1.86-1.29-2.51c-0.85-0.76-1.85-1.19-2.99-1.25
							c-0.42-0.02-0.87,0.04-1.27,0.16c-0.4,0.12-0.83,0.29-1.18,0.53c-0.68,0.47-1.33,1.07-1.69,1.83
							c-0.38,0.81-0.64,1.61-0.61,2.52c0.02,0.78,0.32,1.56,0.88,2.12c0.52,0.52,1.37,0.91,2.12,0.88c0.78-0.03,1.58-0.29,2.12-0.88
							C182.52,232.55,182.9,231.81,182.87,231.01L182.87,231.01z"/>
					</g>
				</g>
				<g>
					<path fill="#DEB94E" d="M148.61,219.7c1.43-0.36,2.76-1.03,4.07-1.7c2.47-1.26,4.94-2.52,7.4-3.77"/>
					<g>
						<path d="M149.41,222.59c2.22-0.58,4.26-1.74,6.29-2.77c1.97-1,3.94-2.01,5.9-3.01c1.4-0.71,1.92-2.8,1.08-4.1
							c-0.92-1.43-2.61-1.84-4.1-1.08c-1.9,0.97-3.8,1.94-5.7,2.91c-0.91,0.46-1.82,0.94-2.74,1.39c-0.22,0.11-0.44,0.21-0.67,0.32
							c-0.13,0.06-0.26,0.12-0.38,0.17c0.36-0.15,0.44-0.18,0.23-0.1c-0.5,0.18-0.98,0.36-1.5,0.49c-1.52,0.4-2.59,2.16-2.1,3.69
							C146.22,222.06,147.78,223.02,149.41,222.59L149.41,222.59z"/>
					</g>
				</g>
				<g>
					<path fill="#DEB94E" d="M170.6,211.17c7.55-1.41,15.3-2.16,22.9-1.07c7.6,1.09,15.07,4.14,20.54,9.53"/>
					<g>
						<path d="M171.4,214.06c13.71-2.53,29.83-2.71,40.52,7.69c2.77,2.69,7.02-1.54,4.24-4.24c-5.5-5.35-12.72-8.68-20.23-10.04
							c-8.69-1.58-17.49-0.79-26.12,0.81c-1.59,0.29-2.5,2.22-2.1,3.69C168.17,213.64,169.8,214.36,171.4,214.06L171.4,214.06z"/>
					</g>
				</g>
				<g>
					<path fill="#DEB94E" d="M137.85,200.13c3.87-0.98,7.95-0.38,11.93-0.71c10.41-0.86,19.97-8.09,30.35-6.88"/>
					<g>
						<path d="M138.64,203.02c3.71-0.88,7.57-0.28,11.33-0.62c3.62-0.33,7.1-1.26,10.52-2.43c6.36-2.18,12.75-5.16,19.62-4.43
							c1.61,0.17,3-1.5,3-3c0-1.76-1.38-2.83-3-3c-7.28-0.77-14.11,2.18-20.82,4.51c-3.22,1.12-6.56,2.18-9.98,2.41
							c-4.11,0.27-8.21-0.19-12.26,0.78C133.3,198.13,134.88,203.92,138.64,203.02L138.64,203.02z"/>
					</g>
				</g>
				<g>
					<path fill="#DEB94E" d="M190.03,194.91c2.34-1.88,5.81-1.59,8.55-0.37c2.75,1.21,5.08,3.2,7.73,4.62
						c6.22,3.34,13.62,3.32,20.51,4.82c0.88,0.19,1.78,0.42,2.5,0.97c1.32,1.01,1.67,2.81,2.35,4.34c0.88,1.99,2.45,3.67,4.37,4.67
						c1.06,0.55,2.22,0.92,3.18,1.63c0.8,0.59,1.41,1.4,1.92,2.25c1.92,3.25,2.32,7.15,2.59,10.92c0.75,10.73,0.75,21.51-0.01,32.24
						"/>
					<g>
						<path d="M191.54,197.5c2-1.49,4.45-0.99,6.68,0.19c2.92,1.55,5.46,3.66,8.51,4.97c6.16,2.65,12.83,2.75,19.29,4.2
							c1.17,0.26,1.59,0.41,1.96,1.18c0.7,1.48,1.09,3.04,2.04,4.41c0.96,1.38,2.13,2.54,3.52,3.49c1.2,0.81,2.68,1.15,3.84,2
							c2.04,1.49,2.69,4.99,3.03,7.41c0.47,3.41,0.56,6.91,0.69,10.34c0.33,8.43,0.19,16.88-0.39,25.3c-0.11,1.62,1.46,3,3,3
							c1.72,0,2.89-1.38,3-3c0.57-8.09,0.72-16.2,0.43-24.31c-0.13-3.76-0.27-7.56-0.73-11.29c-0.42-3.49-1.2-7.11-3.31-10
							c-1.09-1.5-2.42-2.58-4.11-3.35c-1.45-0.67-2.81-1.3-3.8-2.6c-0.74-0.98-0.99-1.88-1.43-2.98c-0.75-1.87-1.75-3.53-3.59-4.5
							c-1.44-0.76-3.1-1.01-4.69-1.29c-1.86-0.33-3.73-0.59-5.6-0.86c-3.4-0.51-6.83-1.07-10.06-2.3c-3.52-1.34-6.32-4.01-9.74-5.55
							c-3.62-1.63-8.22-2.14-11.58,0.37c-1.29,0.97-1.96,2.59-1.08,4.1C188.18,197.7,190.23,198.47,191.54,197.5L191.54,197.5z"/>
					</g>
				</g>
				<g>
					<path fill="#DEB94E" d="M236.8,281.89c-1.39,1.45-2.7,2.98-3.93,4.57c-1.35,1.76-2.64,3.78-2.52,5.99
						c0.16,2.95,2.72,5.12,5.07,6.91c0.84,0.64,1.67,1.28,2.51,1.91"/>
					<g>
						<path d="M234.68,279.76c-1.78,1.87-3.47,3.84-4.97,5.95c-1.52,2.15-2.64,4.74-2.28,7.42c0.68,5.05,5.26,7.89,8.98,10.73
							c1.25,0.96,3.41,0.24,4.1-1.08c0.84-1.59,0.26-3.08-1.08-4.1c-0.84-0.64-1.67-1.27-2.51-1.91c0.25,0.19,0.06,0.05-0.08-0.06
							c-0.15-0.12-0.31-0.24-0.46-0.37c-0.34-0.28-0.68-0.57-1-0.87c-0.32-0.3-0.63-0.6-0.93-0.93c-0.13-0.14-0.26-0.29-0.38-0.44
							c0.31,0.39-0.06-0.11-0.12-0.19c-0.1-0.16-0.2-0.31-0.29-0.48c-0.1-0.19-0.25-0.56-0.1-0.16c-0.06-0.17-0.12-0.35-0.17-0.52
							c-0.02-0.08-0.11-0.79-0.09-0.42c0.02,0.33,0.02-0.29,0.02-0.35c0-0.49-0.09,0.35,0-0.13c0.05-0.26,0.13-0.5,0.19-0.75
							c0.03-0.1,0.16-0.45,0.04-0.16c0.36-0.88,0.94-1.7,1.49-2.46c1.06-1.44,2.48-3.05,3.84-4.48c1.12-1.17,1.16-3.08,0-4.24
							C237.8,278.64,235.81,278.59,234.68,279.76L234.68,279.76z"/>
					</g>
				</g>
				<g>
					<path fill="#DEB94E" d="M239.28,293.48c2.6-1.66,5.94-2.09,8.88-1.15c0.9,0.29,1.8,0.74,2.34,1.52c0.5,0.74,0.61,1.67,0.7,2.57
						c0.14,1.38,0.28,2.76,0.42,4.14"/>
					<g>
						<path d="M240.79,296.07c0.28-0.18,0.57-0.35,0.87-0.5c0.17-0.09,0.38-0.16,0.54-0.26c-0.26,0.16-0.48,0.19-0.06,0.04
							c0.67-0.24,1.37-0.31,2.04-0.51c-0.15,0.04-0.61,0.06-0.2,0.04c0.2-0.01,0.4-0.03,0.6-0.04c0.33-0.01,0.67-0.01,1,0.01
							c0.17,0.01,0.33,0.03,0.5,0.04c0.38,0.03-0.66-0.12-0.1-0.01c0.36,0.07,0.72,0.15,1.08,0.25c0.16,0.05,0.31,0.1,0.47,0.15
							c0.52,0.16-0.42-0.22-0.1-0.05c0.14,0.07,0.29,0.14,0.42,0.22c0.05,0.03,0.57,0.38,0.16,0.09c-0.48-0.34,0.14,0.13,0.11,0.14
							c-0.25-0.35-0.31-0.42-0.18-0.22c0.06,0.09,0.11,0.17,0.15,0.27c-0.15-0.05-0.21-0.62-0.05-0.05
							c0.05,0.17,0.08,0.34,0.11,0.51c0.12,0.56-0.04-0.46-0.01-0.07c0.02,0.18,0.04,0.37,0.06,0.55c0.04,0.41,0.08,0.81,0.12,1.22
							c0.09,0.89,0.18,1.79,0.27,2.68c0.08,0.82,0.28,1.52,0.88,2.12c0.52,0.52,1.37,0.91,2.12,0.88c1.49-0.07,3.17-1.33,3-3
							c-0.1-1.01-0.2-2.03-0.31-3.04c-0.11-1.11-0.16-2.25-0.43-3.33c-0.62-2.44-2.52-3.94-4.82-4.71c-3.69-1.24-8-0.63-11.28,1.42
							c-1.33,0.83-1.97,2.71-1.08,4.1C237.55,296.32,239.37,296.96,240.79,296.07L240.79,296.07z"/>
					</g>
				</g>
				<g>
					<path fill="#DEB94E" d="M242.94,293.77c0.61,0.32,1.24,0.63,1.83,0.98c2.52,1.51,4.38,3.89,6.64,5.75
						c3.94,3.24,9.19,4.83,14.27,4.34"/>
					<g>
						<path d="M241.43,296.36c2.02,1.05,3.56,2.21,5.19,3.79c1.73,1.68,3.5,3.31,5.57,4.55c4.01,2.41,8.84,3.55,13.5,3.15
							c1.61-0.14,3-1.28,3-3c0-1.51-1.38-3.14-3-3c-3.99,0.34-7.72-0.52-11.1-2.72c-1.63-1.06-2.97-2.51-4.42-3.88
							c-1.74-1.64-3.6-2.96-5.71-4.06c-1.44-0.75-3.26-0.37-4.1,1.08C239.56,293.6,239.98,295.61,241.43,296.36L241.43,296.36z"/>
					</g>
				</g>
				<g>
					<path fill="#DEB94E" d="M261.3,305.2c-0.2,3.78,0.14,7.6,1.02,11.28c0.35-0.25,0.6-0.64,0.68-1.06"/>
					<g>
						<path d="M258.3,305.2c-0.2,4.05,0.2,8.14,1.13,12.08c0.21,0.9,0.91,1.6,1.74,1.94c0.79,0.33,1.94,0.41,2.67-0.15
							c0.98-0.76,1.77-1.6,2.06-2.86c0.34-1.53-0.46-3.32-2.1-3.69c-1.52-0.35-3.32,0.46-3.69,2.1c-0.11,0.49,0.3-0.48,0.11-0.19
							c-0.08,0.13-0.05,0.1,0.09-0.11c0.12-0.19,0.29-0.34,0.5-0.44c1.47,0.6,2.94,1.2,4.41,1.79c-0.22-0.92-0.4-1.85-0.56-2.79
							c-0.04-0.22-0.07-0.43-0.1-0.65c-0.11-0.75,0.08,0.68-0.01-0.07c-0.05-0.47-0.11-0.94-0.15-1.41
							c-0.16-1.85-0.19-3.71-0.1-5.57c0.08-1.57-1.44-3.07-3-3C259.61,302.27,258.39,303.52,258.3,305.2L258.3,305.2z"/>
					</g>
				</g>
				<g>
					<path fill="#DEB94E" d="M268.7,298.72c1.55-2.92,3.11-5.84,4.66-8.76c0.52-0.99,1.11-2.03,2.12-2.52
						c1.15-0.56,2.53-0.22,3.74,0.21c1.17,0.41,2.35,0.91,3.25,1.77c0.9,0.86,1.47,2.15,1.18,3.36c-0.3,1.24-1.44,2.14-2.66,2.51
						c-1.22,0.37-2.52,0.31-3.8,0.25c-0.86-0.04-1.72-0.08-2.58-0.13c-1.04-0.05-2.33-0.28-2.65-1.27c-0.28-0.87,0.41-1.75,1.15-2.3
						c0.87-0.64,1.87-1.1,2.92-1.34c0.82-0.18,1.7-0.23,2.46,0.14s1.31,1.23,1.1,2.04c-0.2,0.81-1.34,1.29-1.96,0.73
						c-0.19-0.17-0.31-0.41-0.49-0.61c-0.51-0.57-1.37-0.63-2.14-0.64"/>
					<g>
						<path d="M271.3,300.24c1.66-3.11,3.23-6.3,4.99-9.35c0.08-0.13,0.15-0.26,0.23-0.39c0.03-0.05,0.47-0.57,0.16-0.25
							c-0.28,0.29,0.07-0.03,0.13-0.11c0.25-0.35-0.56,0.4,0,0c0.13-0.09,0.35-0.31-0.05,0.02c0.08-0.02,0.16-0.04,0.24-0.06
							c-0.1,0.02-0.2,0.03-0.3,0.05c0.02-0.02,0.82,0.04,0.36-0.01c-0.4-0.04,0.4,0.1,0.49,0.12c0.37,0.1,0.74,0.22,1.1,0.36
							c0.16,0.06,0.31,0.12,0.47,0.18c-0.55-0.19-0.15-0.07-0.03-0.01c0.33,0.17,0.66,0.33,0.98,0.53c0.15,0.1,0.51,0.45,0.09,0.05
							c0.17,0.17,0.34,0.33,0.5,0.51c-0.07-0.08-0.35-0.49-0.06-0.03c0.3,0.47,0.06-0.01,0-0.08c0,0.01,0.3,0.76,0.12,0.27
							c-0.13-0.37-0.03,0.03-0.01,0.17c0.05,0.38,0.2-0.61-0.02-0.02c0.03-0.08,0.3-0.6,0.05-0.15c-0.29,0.53,0.1-0.11,0.1-0.1
							c-0.09,0.11-0.19,0.21-0.3,0.3c0.09-0.07,0.18-0.13,0.27-0.2c-0.09,0.12-0.32,0.21-0.45,0.29c-0.11,0.06-0.52,0.19-0.13,0.08
							c0.51-0.15-0.31,0.07-0.31,0.07c-0.18,0.05-0.35,0.08-0.53,0.11c0.56-0.11,0.12-0.02-0.01-0.02c-0.23,0-0.46,0.02-0.68,0.02
							c-0.46,0-0.92-0.02-1.37-0.04c-0.86-0.04-1.72-0.08-2.58-0.13c-0.14-0.01-0.29-0.03-0.43-0.03c-0.4,0.02,0.75,0.18,0.13,0.02
							c-0.12-0.03-0.26-0.07-0.37-0.09c-0.56-0.1,0.49,0.31,0.04,0.02c0.47,0.31,0.77,0.79,0.78,1.36c0,0.03-0.25,0.91-0.09,0.58
							c0.02-0.03,0.04-0.06,0.06-0.1c-0.23,0.3-0.23,0.32,0,0.08c0.07-0.14,0.48-0.28-0.05,0.02c0.14-0.08,0.28-0.19,0.42-0.27
							c0.18-0.11,0.37-0.19,0.55-0.3c0.28-0.18-0.45,0.13,0.08-0.04c0.2-0.06,0.39-0.13,0.59-0.19c0.09-0.02,0.87-0.18,0.46-0.12
							c-0.46,0.06,0.32-0.03,0.36,0c-0.1-0.02-0.2-0.04-0.3-0.06c0.28,0.08,0.32,0.08,0.12-0.01c-0.04-0.02-0.08-0.04-0.13-0.07
							c0.28,0.17,0.25,0.13-0.09-0.11c0.38,0.31-0.16-0.23-0.21-0.45c-0.16-0.65,0.18-1.42,0.75-1.78c0.24-0.15,0.56-0.24,0.84-0.24
							c0.59-0.03,1.05,0.17,1.37,0.61c0.37,0.4,0.45,0.46,0.23,0.18c-0.24-0.55-1.03-1.21-1.51-1.49c-1.03-0.59-2.17-0.76-3.34-0.79
							c-1.57-0.05-3.07,1.41-3,3c0.07,1.66,1.32,2.95,3,3c0.15,0,0.51,0.09,0.64,0.03c-0.14,0.06-0.63-0.2-0.17,0
							c0,0-0.53-0.28-0.24-0.11c0.28,0.17-0.21-0.16-0.21-0.16c0,0-0.37-0.48-0.17-0.22c0.38,0.52,0.73,0.93,1.27,1.3
							c1.34,0.92,3.12,0.8,4.48-0.02c1.63-0.98,2.36-2.99,1.88-4.81c-0.41-1.58-1.6-2.75-3.07-3.37c-2.64-1.12-5.96,0.02-8.12,1.68
							c-1.3,1.01-2.42,2.48-2.39,4.22c0.02,1.63,0.91,3.13,2.35,3.91c1.13,0.61,2.39,0.75,3.65,0.82c1.22,0.06,2.45,0.16,3.67,0.16
							c2.85,0.01,5.72-0.92,7.3-3.44c1.61-2.55,0.77-5.98-1.38-7.94c-1.09-0.99-2.31-1.61-3.66-2.15c-1.24-0.5-2.55-0.88-3.89-0.91
							c-1.69-0.04-3.39,0.65-4.54,1.9c-0.93,1.01-1.54,2.22-2.18,3.43c-1.37,2.58-2.74,5.15-4.11,7.73c-0.74,1.38-0.4,3.33,1.08,4.1
							C268.58,302.05,270.51,301.71,271.3,300.24L271.3,300.24z"/>
					</g>
				</g>
				<g>
					<path fill="#DEB94E" d="M286.32,299.79c1.66-0.55,3.21-1.54,4.27-2.93c1.06-1.39,1.61-3.21,1.33-4.94
						c-0.25-1.54-1.1-2.9-1.93-4.21c-1.28-2.02-2.56-4.04-3.85-6.07"/>
					<g>
						<path d="M287.11,302.68c4.32-1.49,8.14-5.29,7.87-10.18c-0.13-2.34-1.17-4.36-2.4-6.31c-1.28-2.02-2.56-4.04-3.85-6.07
							c-0.84-1.32-2.71-1.98-4.1-1.08c-1.33,0.85-1.98,2.69-1.08,4.1c1.03,1.62,2.05,3.24,3.08,4.85c0.48,0.76,0.97,1.51,1.43,2.28
							c0.21,0.36,0.41,0.72,0.6,1.1c0.16,0.33,0.18,0.38,0.06,0.14c0.07,0.19,0.13,0.39,0.19,0.59c0.07,0.37,0.09,0.4,0.06,0.1
							c0.02,0.19,0.03,0.39,0.03,0.58c0,0.19-0.01,0.39-0.02,0.58c0.05-0.32,0.04-0.3-0.03,0.06c-0.03,0.11-0.4,1.13-0.18,0.66
							c-0.16,0.35-0.36,0.69-0.59,1.01c0.28-0.4-0.39,0.41-0.48,0.5c-0.14,0.13-0.28,0.26-0.43,0.39c0.23-0.17,0.19-0.15-0.09,0.06
							c-0.33,0.21-0.67,0.4-1.01,0.59c-0.32,0.15-0.35,0.17-0.08,0.06c-0.18,0.07-0.36,0.14-0.55,0.2c-1.48,0.51-2.62,2.08-2.1,3.69
							C283.9,302.05,285.52,303.23,287.11,302.68L287.11,302.68z"/>
					</g>
				</g>
				<g>
					<path fill="#DEB94E" d="M293.51,227.24c-1.32-0.1-2.67-0.2-3.95,0.16c-1.27,0.36-2.47,1.28-2.79,2.56
						c-0.34,1.37,0.4,2.8,1.4,3.8c1.93,1.94,4.94,2.73,7.58,1.99c2.04-0.57,3.77-1.95,5.81-2.54c3.93-1.13,7.97,0.89,11.92,1.94
						c4.31,1.14,8.83,1.13,13.28,1.09c14.4-0.14,29.7-0.82,41.58-8.97"/>
					<g>
						<path d="M293.51,224.24c-3.73-0.28-8.19,0.51-9.52,4.58c-1.22,3.74,1.56,7.44,4.79,9.03c3.29,1.61,6.79,1.42,10.06-0.1
							c1.42-0.66,2.77-1.62,4.36-1.83c1.47-0.19,2.97,0.18,4.37,0.57c1.58,0.44,3.12,1,4.69,1.44c2.08,0.58,4.23,0.9,6.38,1.1
							c3.52,0.33,7.07,0.23,10.6,0.18c6.78-0.11,13.57-0.44,20.26-1.59c7.2-1.24,14.28-3.63,20.35-7.75
							c1.34-0.91,1.93-2.64,1.08-4.1c-0.78-1.33-2.76-1.99-4.1-1.08c-9.47,6.42-21,7.96-32.18,8.39c-2.94,0.11-5.89,0.16-8.84,0.18
							c-3.22,0.02-6.5,0.04-9.67-0.57c-3.1-0.6-6-1.93-9.11-2.48c-3.55-0.63-6.52-0.03-9.7,1.6c-2.28,1.17-4.38,1.84-6.49,0.34
							c-0.44-0.31-0.74-0.75-1.05-1.12c-0.07-0.08-0.12-0.53-0.12-0.29c0,0.24,0.23-0.25,0.12-0.16c0.75-0.62,2.54-0.43,3.71-0.34
							c1.62,0.12,3-1.47,3-3C296.51,225.52,295.13,224.37,293.51,224.24L293.51,224.24z"/>
					</g>
				</g>
				<g>
					<path fill="#DEB94E" d="M297.34,226.41c2.08-0.95,4.15-1.9,6.23-2.85c3.2-1.47,6.4-2.93,9.72-4.09
						c10.19-3.54,21.23-4.02,31.96-2.89s21.22,3.82,31.66,6.5"/>
					<g>
						<path d="M298.85,229c4.74-2.17,9.43-4.53,14.33-6.32c4.67-1.7,9.56-2.81,14.5-3.29c10.34-1.01,20.69,0.23,30.81,2.34
							c5.91,1.23,11.77,2.73,17.61,4.23c3.74,0.96,5.34-4.83,1.6-5.79c-20.79-5.33-43.23-10.85-64.34-3.9
							c-6.04,1.99-11.77,4.9-17.54,7.54c-1.47,0.68-1.84,2.81-1.08,4.1C295.63,229.44,297.37,229.68,298.85,229L298.85,229z"/>
					</g>
				</g>
				<g>
					<path fill="#DEB94E" d="M313.14,220.72c-0.62,1.08-0.64,2.4-0.47,3.63c0.53,3.98,2.9,7.68,6.29,9.83"/>
					<g>
						<path d="M310.55,219.21c-1.77,3.32-0.82,7.32,0.67,10.56c1.33,2.88,3.58,5.3,6.22,7.01c1.32,0.85,3.37,0.31,4.1-1.08
							c0.79-1.49,0.33-3.19-1.08-4.1c-0.26-0.17-0.5-0.35-0.76-0.52c-0.33-0.23,0.42,0.36,0.12,0.09c-0.1-0.09-0.21-0.17-0.31-0.26
							c-0.46-0.4-0.9-0.83-1.31-1.29c-0.09-0.1-0.18-0.2-0.27-0.31c-0.14-0.17-0.29-0.53,0.02,0.05c-0.13-0.23-0.33-0.44-0.47-0.67
							c-0.34-0.51-0.65-1.04-0.92-1.59c-0.06-0.12-0.12-0.25-0.18-0.37c-0.18-0.37-0.03,0.05,0.06,0.16
							c-0.17-0.2-0.24-0.61-0.32-0.86c-0.18-0.55-0.33-1.11-0.44-1.68c-0.03-0.17-0.06-0.34-0.09-0.5c-0.08-0.4,0.05,0.59,0.02,0.17
							c-0.02-0.33-0.05-0.66-0.05-0.99c0-0.05,0.05-0.42,0.02-0.44c0.07,0.06-0.14,0.62-0.02,0.15c0.05-0.17,0.1-0.35,0.14-0.52
							c0.08-0.36-0.31,0.62,0.01,0.02c0.74-1.38,0.39-3.33-1.08-4.1C313.26,217.4,311.33,217.73,310.55,219.21L310.55,219.21z"/>
					</g>
				</g>
				<g>
					<path fill="#DEB94E" d="M341.65,233.87c3.65-2.04,5.43-6.88,3.97-10.8c-0.32-0.87-0.78-1.68-1.24-2.47
						c-0.68-1.17-1.4-2.35-2.45-3.21"/>
					<g>
						<path d="M343.17,236.46c3.53-2.04,5.61-5.78,5.93-9.78c0.17-2.09-0.37-4.1-1.25-5.97c-0.92-1.94-2.15-4.04-3.8-5.44
							c-1.19-1.02-3.09-1.26-4.24,0c-1.03,1.12-1.27,3.15,0,4.24c0.31,0.27,0.57,0.57,0.86,0.85c0.23,0.22-0.19-0.3,0.11,0.14
							c0.1,0.15,0.2,0.3,0.3,0.45c0.47,0.72,0.91,1.48,1.31,2.24c0.12,0.23,0.24,0.46,0.34,0.69c0.2,0.45-0.09-0.27,0.03,0.1
							c0.11,0.32,0.2,0.63,0.28,0.96c0.01,0.03,0.14,0.74,0.06,0.26c-0.08-0.48,0.01,0.22,0.01,0.26c0.02,0.33,0.02,0.67,0,1
							c-0.01,0.15-0.03,0.3-0.04,0.44c-0.03,0.41,0.15-0.73-0.01-0.03c-0.07,0.33-0.14,0.65-0.24,0.97
							c-0.04,0.14-0.09,0.28-0.14,0.42c-0.22,0.62,0.02,0.02,0.01,0.01c0.03,0.02-0.44,0.85-0.46,0.89
							c-0.17,0.29-0.36,0.56-0.55,0.84c0.12-0.18,0.29-0.35,0.05-0.09c-0.13,0.14-0.25,0.28-0.38,0.41
							c-0.23,0.24-0.48,0.45-0.74,0.67c0.17-0.14,0.37-0.26,0.07-0.07c-0.19,0.12-0.38,0.24-0.57,0.35
							c-1.36,0.79-1.95,2.75-1.08,4.1C339.95,236.75,341.71,237.3,343.17,236.46L343.17,236.46z"/>
					</g>
				</g>
				<g>
					<path fill="#DEB94E" d="M327.46,224.36c0.2-0.33,0.74-0.29,1.01,0c0.26,0.29,0.3,0.71,0.29,1.1c-0.03,0.87-0.29,1.74-0.73,2.49
						c-0.14,0.24-0.32,0.48-0.59,0.57c-0.53,0.17-1.06-0.41-1.05-0.97s0.35-1.04,0.69-1.49c0.24-0.32,0.57-0.67,0.96-0.58
						c0.21,0.05,0.36,0.23,0.49,0.4c0.54,0.73,0.89,1.69,0.59,2.55c-0.29,0.86-1.42,1.43-2.17,0.92c-0.34-0.23-0.54-0.63-0.68-1.02
						c-0.36-1.06-0.32-2.29,0.25-3.25s1.75-1.59,2.85-1.37s1.99,1.36,1.77,2.46c-0.1,0.49-0.38,0.93-0.68,1.33
						c-0.93,1.28-2.37,2.54-3.91,2.18c-0.09-0.02-0.18-0.05-0.25-0.11c-0.11-0.11-0.13-0.28-0.12-0.43
						c0.01-1.36,0.65-2.71,1.69-3.59c0.42-0.35,0.91-1.01,0.46-1.32c-0.17-0.11-0.39-0.09-0.58-0.04c-1.21,0.31-2.14,1.47-2.18,2.72
						c-0.02,0.47,0.1,0.98,0.45,1.29c0.23,0.21,0.53,0.31,0.83,0.4c1.33,0.38,2.98,0.34,3.86-0.74c0.51-0.62,0.64-1.53,0.34-2.27
						c-0.3-0.74-1.03-1.29-1.83-1.38"/>
					<g>
						<path d="M330.05,225.88c0.01-0.02,0.03-0.04,0.04-0.06c-0.16,0.2-0.31,0.4-0.47,0.61c0.02-0.02,0.03-0.03,0.05-0.05
							c-0.2,0.16-0.4,0.31-0.61,0.47c0.03-0.03,0.07-0.05,0.12-0.07c-0.24,0.1-0.48,0.2-0.72,0.3c0.04-0.02,0.09-0.03,0.13-0.04
							c-0.27,0.04-0.53,0.07-0.8,0.11c0.08-0.01,0.14-0.01,0.22,0c-0.27-0.04-0.53-0.07-0.8-0.11c0.08,0.01,0.14,0.03,0.21,0.06
							c-0.24-0.1-0.48-0.2-0.72-0.3c0.05,0.02,0.09,0.04,0.13,0.07c-0.2-0.16-0.4-0.31-0.61-0.47c0.07,0.05,0.11,0.1,0.17,0.17
							c-0.16-0.2-0.31-0.4-0.47-0.61c0.05,0.08,0.09,0.15,0.13,0.23c-0.1-0.24-0.2-0.48-0.3-0.72c0.04,0.11,0.07,0.23,0.09,0.35
							c-0.04-0.27-0.07-0.53-0.11-0.8c0.04,0.33,0.02,0.65-0.03,0.98c0.04-0.27,0.07-0.53,0.11-0.8c-0.07,0.45-0.19,0.89-0.36,1.31
							c0.1-0.24,0.2-0.48,0.3-0.72c-0.13,0.31-0.29,0.61-0.49,0.89c0.16-0.2,0.31-0.4,0.47-0.61c-0.06,0.07-0.12,0.14-0.19,0.2
							c0.2-0.16,0.4-0.31,0.61-0.47c-0.05,0.04-0.1,0.07-0.15,0.1c0.24-0.1,0.48-0.2,0.72-0.3c-0.05,0.03-0.11,0.04-0.16,0.06
							c0.27-0.04,0.53-0.07,0.8-0.11c-0.08,0.01-0.15,0.01-0.23,0c0.27,0.04,0.53,0.07,0.8,0.11c-0.05-0.01-0.1-0.03-0.15-0.05
							c0.24,0.1,0.48,0.2,0.72,0.3c-0.08-0.04-0.14-0.08-0.2-0.13c0.2,0.16,0.4,0.31,0.61,0.47c-0.06-0.06-0.12-0.11-0.17-0.18
							c0.16,0.2,0.31,0.4,0.47,0.61c-0.05-0.07-0.09-0.14-0.13-0.22c0.1,0.24,0.2,0.48,0.3,0.72c-0.03-0.08-0.06-0.16-0.07-0.24
							c0.04,0.27,0.07,0.53,0.11,0.8c-0.02-0.12-0.01-0.24,0-0.36c-0.04,0.27-0.07,0.53-0.11,0.8c0.02-0.13,0.06-0.25,0.1-0.37
							c-0.1,0.24-0.2,0.48-0.3,0.72c0.15-0.36,0.38-0.68,0.62-0.99c-0.16,0.2-0.31,0.4-0.47,0.61c0.11-0.14,0.23-0.27,0.37-0.38
							c-0.2,0.16-0.4,0.31-0.61,0.47c0.05-0.03,0.09-0.06,0.14-0.09c-0.24,0.1-0.48,0.2-0.72,0.3c0.08-0.03,0.14-0.05,0.23-0.06
							c-0.27,0.04-0.53,0.07-0.8,0.11c0.03,0,0.05,0,0.08,0c-0.27-0.04-0.53-0.07-0.8-0.11c0.06,0,0.11,0.02,0.17,0.04
							c-0.24-0.1-0.48-0.2-0.72-0.3c0.06,0.02,0.11,0.06,0.16,0.09c-0.2-0.16-0.4-0.31-0.61-0.47c0.07,0.06,0.13,0.13,0.19,0.2
							c-0.16-0.2-0.31-0.4-0.47-0.61c0.2,0.26,0.37,0.54,0.5,0.84c-0.1-0.24-0.2-0.48-0.3-0.72c0.11,0.27,0.2,0.55,0.24,0.84
							c-0.04-0.27-0.07-0.53-0.11-0.8c0.02,0.19,0.02,0.38,0,0.57c0.04-0.27,0.07-0.53,0.11-0.8c-0.02,0.15-0.06,0.3-0.11,0.44
							c0.1-0.24,0.2-0.48,0.3-0.72c-0.06,0.14-0.14,0.27-0.23,0.39c0.16-0.2,0.31-0.4,0.47-0.61c-0.1,0.12-0.21,0.22-0.33,0.32
							c0.2-0.16,0.4-0.31,0.61-0.47c-0.13,0.09-0.25,0.16-0.4,0.22c0.24-0.1,0.48-0.2,0.72-0.3c-0.12,0.04-0.23,0.08-0.36,0.1
							c0.27-0.04,0.53-0.07,0.8-0.11c-0.12,0.01-0.24,0.01-0.36,0c0.27,0.04,0.53,0.07,0.8,0.11c-0.1-0.02-0.19-0.04-0.28-0.08
							c0.24,0.1,0.48,0.2,0.72,0.3c-0.1-0.04-0.18-0.1-0.27-0.16c0.2,0.16,0.4,0.31,0.61,0.47c-0.09-0.08-0.17-0.16-0.25-0.25
							c0.16,0.2,0.31,0.4,0.47,0.61c-0.11-0.15-0.19-0.3-0.26-0.47c0.1,0.24,0.2,0.48,0.3,0.72c-0.14-0.35-0.24-0.72-0.29-1.1
							c0.04,0.27,0.07,0.53,0.11,0.8c-0.04-0.35-0.05-0.7-0.01-1.06c-0.04,0.27-0.07,0.53-0.11,0.8c0.04-0.32,0.12-0.62,0.24-0.92
							c-0.1,0.24-0.2,0.48-0.3,0.72c0.11-0.26,0.25-0.5,0.42-0.72c-0.16,0.2-0.31,0.4-0.47,0.61c0.15-0.19,0.32-0.35,0.5-0.5
							c-0.2,0.16-0.4,0.31-0.61,0.47c0.21-0.16,0.44-0.3,0.68-0.41c-0.24,0.1-0.48,0.2-0.72,0.3c0.22-0.09,0.44-0.15,0.67-0.19
							c-0.27,0.04-0.53,0.07-0.8,0.11c0.23-0.03,0.46-0.03,0.7,0c-0.27-0.04-0.53-0.07-0.8-0.11c0.17,0.03,0.33,0.07,0.49,0.14
							c-0.24-0.1-0.48-0.2-0.72-0.3c0.18,0.08,0.35,0.18,0.51,0.3c-0.2-0.16-0.4-0.31-0.61-0.47c0.16,0.12,0.29,0.26,0.42,0.41
							c-0.16-0.2-0.31-0.4-0.47-0.61c0.12,0.16,0.22,0.32,0.3,0.5c-0.1-0.24-0.2-0.48-0.3-0.72c0.08,0.18,0.13,0.36,0.16,0.55
							c-0.04-0.27-0.07-0.53-0.11-0.8c0.02,0.17,0.02,0.33,0,0.49c0.04-0.27,0.07-0.53,0.11-0.8c-0.03,0.19-0.09,0.38-0.17,0.56
							c0.1-0.24,0.2-0.48,0.3-0.72c-0.18,0.39-0.43,0.74-0.69,1.09c0.16-0.2,0.31-0.4,0.47-0.61c-0.36,0.46-0.76,0.88-1.21,1.24
							c0.2-0.16,0.4-0.31,0.61-0.47c-0.3,0.23-0.61,0.42-0.96,0.57c0.24-0.1,0.48-0.2,0.72-0.3c-0.22,0.09-0.45,0.15-0.68,0.19
							c0.27-0.04,0.53-0.07,0.8-0.11c-0.21,0.03-0.41,0.03-0.62,0.01c0.27,0.04,0.53,0.07,0.8,0.11c-0.15-0.02-0.3-0.05-0.44-0.11
							c0.24,0.1,0.48,0.2,0.72,0.3c-0.02-0.02-0.05-0.03-0.07-0.05c0.2,0.16,0.4,0.31,0.61,0.47c-0.02-0.02-0.03-0.04-0.05-0.06
							c0.16,0.2,0.31,0.4,0.47,0.61c-0.01-0.02-0.02-0.04-0.03-0.07c0.1,0.24,0.2,0.48,0.3,0.72c-0.02-0.05-0.03-0.1-0.04-0.15
							c0.04,0.27,0.07,0.53,0.11,0.8c-0.02-0.24,0-0.48,0.03-0.71c-0.04,0.27-0.07,0.53-0.11,0.8c0.06-0.43,0.18-0.85,0.34-1.25
							c-0.1,0.24-0.2,0.48-0.3,0.72c0.16-0.37,0.36-0.72,0.6-1.04c-0.16,0.2-0.31,0.4-0.47,0.61c0.23-0.29,0.49-0.54,0.76-0.79
							c0.58-0.53,1.07-1.26,1.3-2.02c0.35-1.15,0.1-2.54-0.79-3.39c-1-0.96-2.23-1.21-3.56-0.92c-1.08,0.24-2.19,0.94-2.9,1.79
							c-0.35,0.42-0.68,0.84-0.9,1.33c-0.38,0.83-0.57,1.49-0.63,2.42c-0.1,1.64,0.74,3.3,2.16,4.13c0.99,0.58,2.25,0.8,3.37,0.86
							c1.15,0.06,2.26-0.22,3.29-0.72c1.24-0.6,2.1-1.78,2.55-3.05c0.48-1.37,0.29-3.13-0.52-4.34c-0.49-0.73-1.01-1.26-1.75-1.73
							c-0.78-0.51-1.58-0.64-2.47-0.76c-0.7-0.09-1.65,0.4-2.12,0.88c-0.52,0.52-0.91,1.37-0.88,2.12c0.03,0.78,0.29,1.58,0.88,2.12
							c0.2,0.16,0.4,0.31,0.61,0.47c0.47,0.27,0.97,0.41,1.51,0.41c0.03,0,0.06,0.01,0.09,0.01c-0.27-0.04-0.53-0.07-0.8-0.11
							c0.17,0.03,0.33,0.08,0.49,0.14c-0.24-0.1-0.48-0.2-0.72-0.3c0.19,0.08,0.36,0.18,0.52,0.3c-0.2-0.16-0.4-0.31-0.61-0.47
							c0.16,0.13,0.3,0.26,0.43,0.42c-0.16-0.2-0.31-0.4-0.47-0.61c0.12,0.16,0.22,0.33,0.3,0.52c-0.1-0.24-0.2-0.48-0.3-0.72
							c0.06,0.17,0.11,0.34,0.14,0.51c-0.04-0.27-0.07-0.53-0.11-0.8c0.03,0.21,0.03,0.41,0,0.62c0.04-0.27,0.07-0.53,0.11-0.8
							c-0.03,0.21-0.08,0.4-0.16,0.6c0.1-0.24,0.2-0.48,0.3-0.72c-0.07,0.16-0.16,0.32-0.26,0.46c0.16-0.2,0.31-0.4,0.47-0.61
							c-0.14,0.18-0.29,0.33-0.46,0.46c0.2-0.16,0.4-0.31,0.61-0.47c-0.17,0.13-0.36,0.23-0.56,0.31c0.24-0.1,0.48-0.2,0.72-0.3
							c-0.26,0.1-0.52,0.17-0.79,0.21c0.27-0.04,0.53-0.07,0.8-0.11c-0.42,0.06-0.85,0.05-1.27,0c0.27,0.04,0.53,0.07,0.8,0.11
							c-0.43-0.06-0.87-0.15-1.27-0.32c0.24,0.1,0.48,0.2,0.72,0.3c-0.11-0.05-0.22-0.11-0.32-0.19c0.2,0.16,0.4,0.31,0.61,0.47
							c-0.07-0.06-0.13-0.12-0.19-0.19c0.16,0.2,0.31,0.4,0.47,0.61c-0.07-0.09-0.13-0.19-0.18-0.3c0.1,0.24,0.2,0.48,0.3,0.72
							c-0.07-0.17-0.11-0.33-0.14-0.51c0.04,0.27,0.07,0.53,0.11,0.8c-0.02-0.21-0.02-0.4,0.01-0.61c-0.04,0.27-0.07,0.53-0.11,0.8
							c0.04-0.25,0.1-0.5,0.2-0.73c-0.1,0.24-0.2,0.48-0.3,0.72c0.1-0.23,0.23-0.45,0.38-0.66c-0.16,0.2-0.31,0.4-0.47,0.61
							c0.18-0.22,0.37-0.42,0.6-0.6c-0.2,0.16-0.4,0.31-0.61,0.47c0.18-0.13,0.38-0.25,0.58-0.34c-0.24,0.1-0.48,0.2-0.72,0.3
							c0.19-0.08,0.37-0.14,0.57-0.17c-0.27,0.04-0.53,0.07-0.8,0.11c0.06-0.01,0.12-0.01,0.17-0.01c-0.27-0.04-0.53-0.07-0.8-0.11
							c0.06,0,0.11,0.02,0.16,0.04c-0.24-0.1-0.48-0.2-0.72-0.3c0.02,0.01,0.05,0.03,0.07,0.04c-0.2-0.16-0.4-0.31-0.61-0.47
							c0.04,0.03,0.07,0.06,0.1,0.1c-0.16-0.2-0.31-0.4-0.47-0.61c0.01,0.02,0.02,0.04,0.03,0.05c-0.1-0.24-0.2-0.48-0.3-0.72
							c0.02,0.04,0.03,0.08,0.04,0.12c-0.04-0.27-0.07-0.53-0.11-0.8c0.01,0.04,0.01,0.09,0,0.13c0.04-0.27,0.07-0.53,0.11-0.8
							c-0.01,0.07-0.03,0.14-0.06,0.21c0.1-0.24,0.2-0.48,0.3-0.72c-0.06,0.13-0.13,0.24-0.22,0.35c0.16-0.2,0.31-0.4,0.47-0.61
							c-0.23,0.27-0.51,0.49-0.75,0.75c-0.42,0.46-0.82,0.96-1.12,1.51c-0.63,1.11-0.94,2.28-1.03,3.54
							c-0.07,1.03,0.24,2.09,0.99,2.83c0.77,0.76,1.93,1.09,3,1.05c1.23-0.04,2.44-0.45,3.42-1.19c0.49-0.37,0.97-0.74,1.38-1.19
							c0.43-0.47,0.83-0.99,1.19-1.51c0.87-1.25,1.18-2.73,0.85-4.22c-0.29-1.34-1.25-2.46-2.37-3.19c-1.2-0.79-2.76-0.93-4.13-0.59
							c-0.56,0.14-1.12,0.38-1.6,0.69c-0.76,0.5-1.26,1.01-1.8,1.73c-0.74,1-1.06,2.31-1.1,3.54c-0.03,1.18,0.27,2.59,0.9,3.61
							c0.41,0.66,0.98,1.29,1.69,1.63c0.97,0.48,1.96,0.6,3.02,0.36c1.24-0.27,2.5-1.23,3.03-2.39c0.36-0.77,0.59-1.57,0.54-2.43
							c-0.06-0.92-0.27-1.62-0.66-2.45c-0.25-0.54-0.62-1.1-1.03-1.52c-0.95-0.98-2.29-1.35-3.61-1.01
							c-1.07,0.28-1.75,1.04-2.38,1.87c-0.41,0.54-0.7,1.07-0.93,1.71c-0.77,2.18,0.51,4.6,2.72,5.24c1.29,0.38,2.79-0.13,3.66-1.12
							c0.63-0.73,1-1.51,1.34-2.41c0.25-0.68,0.34-1.41,0.41-2.12c0.09-0.91-0.09-1.81-0.5-2.63c-0.46-0.94-1.41-1.68-2.43-1.91
							c-0.65-0.14-1.3-0.16-1.94,0.05c-0.43,0.13-0.56,0.2-0.83,0.38c-0.58,0.37-0.77,0.63-1.17,1.18c-0.43,0.6-0.49,1.63-0.3,2.31
							c0.19,0.7,0.73,1.45,1.38,1.79c0.7,0.37,1.54,0.55,2.31,0.3c0.24-0.1,0.48-0.2,0.72-0.3
							C329.43,226.69,329.79,226.33,330.05,225.88L330.05,225.88z"/>
					</g>
				</g>
				<g>
					<path fill="#DEB94E" d="M343.22,209.4c1.63,0.27,3.21,0.82,4.64,1.64"/>
					<g>
						<path d="M342.43,212.29c1.11,0.18,2.18,0.5,3.21,0.93c-0.24-0.1-0.48-0.2-0.72-0.3c0.49,0.21,0.96,0.44,1.43,0.71
							c0.68,0.39,1.55,0.51,2.31,0.3c0.7-0.19,1.45-0.73,1.79-1.38c0.37-0.7,0.55-1.54,0.3-2.31c-0.24-0.74-0.69-1.4-1.38-1.79
							c-1.65-0.93-3.48-1.63-5.36-1.94c-0.4-0.13-0.8-0.14-1.2-0.05c-0.4,0.02-0.77,0.14-1.12,0.36c-0.62,0.36-1.22,1.08-1.38,1.79
							c-0.17,0.77-0.14,1.63,0.3,2.31C341.03,211.53,341.67,212.17,342.43,212.29L342.43,212.29z"/>
					</g>
				</g>
				<g>
					<path fill="#DEB94E" d="M293.07,220.4c10.27-10.65,25.41-16.4,40.15-15.25"/>
					<g>
						<path d="M295.19,222.53c9.86-10.15,23.97-15.41,38.03-14.37c1.62,0.12,3-1.46,3-3c0-1.72-1.38-2.88-3-3
							c-15.57-1.15-31.41,4.95-42.28,16.13C288.25,221.05,292.49,225.3,295.19,222.53L295.19,222.53z"/>
					</g>
				</g>
				<g>
					<path fill="#DEB94E" d="M277.02,275.4c-0.55-8.6,0-17.22,0.55-25.82c0.73-11.43,1.46-22.86,2.19-34.29
						c0.15-2.37,0.35-4.87,1.68-6.84c1.17-1.72,3.06-2.79,4.89-3.79c7.92-4.32,16.01-8.35,24.23-12.07"/>
					<g>
						<path d="M280.02,275.4c-0.82-13.39,0.62-26.88,1.47-40.24c0.42-6.63,0.84-13.25,1.27-19.88c0.15-2.23,0.28-4.59,2.09-6.16
							c2.05-1.78,4.87-2.91,7.26-4.17c6.56-3.46,13.22-6.72,19.97-9.79c1.48-0.67,1.83-2.81,1.08-4.1c-0.89-1.52-2.62-1.75-4.1-1.08
							c-6.16,2.8-12.25,5.76-18.26,8.89c-5.41,2.82-12.17,5.36-13.52,12.04c-0.65,3.21-0.64,6.58-0.85,9.84
							c-0.22,3.48-0.44,6.96-0.67,10.44c-0.44,6.96-0.9,13.91-1.33,20.87c-0.49,7.77-0.87,15.56-0.4,23.34c0.1,1.62,1.31,3,3,3
							C278.56,278.4,280.12,277.03,280.02,275.4L280.02,275.4z"/>
					</g>
				</g>
				<g>
					<path fill="#DEB94E" d="M279.73,218.58c4.02-3.51,7.3-7.86,9.57-12.69c-3.07,1.49-5.1,4.45-6.99,7.29"/>
					<g>
						<path d="M281.85,220.71c4.19-3.68,7.65-8.26,10.03-13.29c0.56-1.17,0.56-2.69-0.47-3.64c-1.03-0.95-2.39-1.09-3.64-0.47
							c-3.57,1.77-5.92,5.14-8.07,8.37c-0.87,1.31-0.3,3.38,1.08,4.1c1.51,0.8,3.17,0.32,4.1-1.08c0.45-0.67,0.9-1.35,1.37-2
							c0.12-0.17,0.24-0.33,0.36-0.49c0.08-0.11,0.16-0.22,0.24-0.32c-0.07,0.1-0.15,0.19-0.22,0.29c0.19-0.36,0.57-0.71,0.84-1.01
							c0.53-0.6,1.09-1.17,1.7-1.68c0.08-0.06,0.15-0.13,0.23-0.19c-0.32,0.25-0.39,0.3-0.21,0.17c0.16-0.11,0.32-0.23,0.49-0.34
							c0.36-0.24,0.74-0.45,1.12-0.64c-1.37-1.37-2.74-2.74-4.1-4.1c-1.13,2.38-2.48,4.64-4.06,6.75c-0.08,0.11-0.19,0.22-0.26,0.34
							c0.16-0.3,0.26-0.33,0.01-0.02c-0.2,0.25-0.4,0.5-0.61,0.74c-0.41,0.49-0.83,0.97-1.27,1.44c-0.92,0.99-1.89,1.93-2.91,2.82
							c-1.18,1.04-1.14,3.19,0,4.24C278.87,221.86,280.59,221.81,281.85,220.71L281.85,220.71z"/>
					</g>
				</g>
				<g>
					<path fill="#DEB94E" d="M282.88,208.24c-4.67,3.38-5.74,9.77-6.44,15.5c-0.41,3.35-0.82,6.7-0.96,10.07
						c-0.53,12.78,2.82,25.55,1.66,38.29"/>
					<g>
						<path d="M281.37,205.65c-6.81,5.11-7.48,13.85-8.36,21.68c-0.54,4.8-0.71,9.57-0.44,14.39c0.26,4.72,0.82,9.42,1.25,14.13
							c0.49,5.41,0.79,10.84,0.32,16.26c-0.14,1.62,1.48,3,3,3c1.74,0,2.86-1.38,3-3c0.79-9.04-0.61-18.03-1.33-27.03
							c-0.36-4.47-0.52-8.95-0.2-13.43c0.29-4.04,0.69-8.01,1.44-11.84c0.66-3.38,1.75-7.03,4.35-8.98c1.29-0.97,1.96-2.59,1.08-4.1
							C284.72,205.45,282.67,204.67,281.37,205.65L281.37,205.65z"/>
					</g>
				</g>
				<g>
					<path fill="#DEB94E" d="M317.84,188.42c3.29-3.95,8.57-5.81,13.7-6.06s10.22,0.92,15.23,2.08c8.34,1.93,16.68,3.87,25.02,5.8"
						/>
					<g>
						<path d="M319.96,190.54c5.52-6.46,14.7-5.66,22.24-4.05c9.63,2.05,19.2,4.43,28.79,6.65c1.58,0.37,3.25-0.49,3.69-2.1
							c0.42-1.52-0.51-3.32-2.1-3.69c-5.13-1.19-10.26-2.38-15.4-3.57c-5.08-1.18-10.16-2.49-15.29-3.47
							c-9-1.71-19.71-1.58-26.18,5.98c-1.05,1.23-1.21,3.03,0,4.24C316.8,191.62,318.9,191.78,319.96,190.54L319.96,190.54z"/>
					</g>
				</g>
				<g>
					<path fill="#DEB94E" d="M215.96,336.76c0.3-2.49,0.95-4.94,1.91-7.25c0.29-0.69,0.76-1.47,1.5-1.46
						c0.47,0.01,0.86,0.35,1.19,0.7c1.58,1.69,3.08,4.1,5.39,3.95c0.78-0.05,1.51-0.42,2.21-0.78c5.54-2.84,11.09-5.68,16.63-8.52
						c2.57-1.32,5.43-2.68,8.24-2.02c3.22,0.75,5.25,3.84,7.91,5.78c0.8,0.58,1.7,1.08,2.68,1.16c2.38,0.19,4.18-1.96,5.98-3.52
						c5.05-4.37,13.19-4.64,18.51-0.6c1.35,1.03,2.57,2.31,4.17,2.9c3.73,1.36,7.53-1.58,11.4-2.5c0.55,2,2.88,2.76,4.68,3.79
						c2.15,1.23,3.85,3.25,4.68,5.59c0.61,0.19,1.17-0.6,1-1.21c-0.17-0.62-0.77-1.01-1.36-1.26c-4.09-1.75-9.32,0.56-13.04-1.88
						c0.94-0.75,2.45-0.66,3.29,0.2c-2.51,0.18-5.02,0.37-7.54,0.55c-22.16,1.56-44.37,2.45-66.59,2.67"/>
					<g>
						<path d="M218.96,336.76c0.16-1.26,0.48-2.53,0.84-3.75c0.19-0.63,0.39-1.27,0.64-1.89c-0.04,0.11,0.21-0.55,0.16-0.4
							c0.24-0.7,0.14-0.11-0.01-0.04c-0.5,0.14-1.01,0.27-1.51,0.41c-0.3-0.16-0.59-0.32-0.89-0.47c0.17,0.16,0.33,0.32,0.48,0.5
							c0.23,0.25,0.45,0.52,0.68,0.78c0.45,0.52,0.9,1.05,1.4,1.53c1.28,1.21,2.78,2.11,4.57,2.25c1.75,0.14,3.28-0.61,4.8-1.39
							c1.9-0.97,3.79-1.94,5.69-2.92c3.36-1.72,6.71-3.44,10.07-5.16c1.53-0.78,3.13-1.69,4.85-1.95c1.39-0.21,2.32,0.15,3.39,0.9
							c2.49,1.72,4.42,4.62,7.5,5.75c3.52,1.29,6.52-0.71,9.03-3c2.01-1.84,3.99-3.01,6.78-3.45c2.19-0.35,4.98-0.02,7.06,1.02
							c1.4,0.7,2.43,1.62,3.66,2.58c1.68,1.32,3.47,2.22,5.64,2.37c3.84,0.27,7.11-2.02,10.7-2.93c-1.23-0.7-2.46-1.4-3.69-2.1
							c0.88,2.65,2.97,3.96,5.33,5.19c1.83,0.95,3.32,2.32,4.04,4.19c0.5,1.32,1.47,2.11,2.89,2.2c2.81,0.18,4.62-2.8,3.77-5.3
							c-0.76-2.24-3.18-3.26-5.34-3.62c-1.95-0.33-3.88-0.26-5.85-0.22c-1.69,0.03-3.11,0.04-4.48-0.8c0,1.73,0,3.45,0,5.18
							c0.48-0.33-0.03,0.01-0.34-0.27c0.71-1.71,1.41-3.41,2.12-5.12c-19.22,1.41-38.45,2.45-57.71,2.93
							c-5.47,0.14-10.94,0.23-16.41,0.29c-3.86,0.04-3.87,6.04,0,6c19.4-0.2,38.79-0.9,58.15-2.11c5.33-0.33,10.65-0.71,15.97-1.11
							c2.38-0.18,4.22-3.28,2.12-5.12c-1.92-1.69-4.72-2.18-6.93-0.67c-1.86,1.27-2.01,3.94,0,5.18c2.33,1.43,5.02,1.67,7.7,1.62
							c1.17-0.02,2.35-0.08,3.52-0.02c0.61,0.03,0.88,0.07,1.46,0.22c0.24,0.06,0.48,0.17,0.72,0.23c-0.12-0.05-0.1-0.03,0.07,0.06
							c0.86,0.55,0.83-0.3-0.11-2.55c0.44-0.26,0.88-0.51,1.32-0.77c0.08,0,0.15-0.01,0.23-0.01c0.96,0.73,1.93,1.47,2.89,2.2
							c-1.03-2.71-2.64-4.94-4.98-6.67c-0.9-0.66-1.89-1.14-2.87-1.66c-0.25-0.13-0.49-0.27-0.74-0.41
							c-0.05-0.03-0.59-0.39-0.33-0.18c-0.16-0.13-0.31-0.28-0.46-0.43c0.29,0.3-0.12-0.41,0.01-0.02c-0.52-1.56-2.05-2.51-3.69-2.1
							c-1.72,0.44-3.33,1.18-4.99,1.82c-1.39,0.54-2.98,1.14-4.25,0.85c-1.42-0.33-2.58-1.66-3.71-2.53
							c-1.41-1.08-2.94-1.87-4.6-2.48c-3.23-1.18-6.85-1.29-10.2-0.56c-3.48,0.76-6.28,2.62-8.87,4.99
							c-0.49,0.45-0.89,0.82-1.39,1.14c-0.48,0.3-0.8,0.46-1.07,0.39c-1.35-0.39-2.38-1.64-3.4-2.61c-2.83-2.68-5.94-4.9-10.05-4.42
							c-4.26,0.49-8.15,3.06-11.9,4.98c-3.87,1.98-7.73,3.97-11.6,5.95c-0.75,0.38-1.04,0.58-1.35,0.42
							c0.41,0.2-0.44-0.35-0.33-0.26c-0.1-0.08-0.58-0.59-0.79-0.81c-1.39-1.51-2.7-3.52-5.01-3.51c-2.87,0.02-4.05,2.6-4.88,4.9
							c-0.8,2.21-1.24,4.49-1.54,6.81c-0.21,1.61,1.53,3,3,3C217.76,339.76,218.75,338.38,218.96,336.76L218.96,336.76z"/>
					</g>
				</g>
				<g>
					<path fill="#DEB94E" d="M236.54,330.31c7.55-1.23,15.23-1.6,22.86-1.12c-2.06-0.66-4.14-1.33-6-2.45
						c-0.46-0.28-0.92-0.59-1.44-0.75c-0.43-0.13-0.88-0.16-1.33-0.18c-0.89-0.05-1.79-0.1-2.68-0.14c-1.18-0.06-2.55-0.05-3.3,0.86
						c2.92-0.49,5.9-0.6,8.85-0.3c-0.6-0.83-1.72-1.24-2.71-1.01c-0.21-0.36-0.1-0.87,0.23-1.11"/>
					<g>
						<path d="M237.34,333.2c7.28-1.17,14.7-1.46,22.06-1.02c1.47,0.09,2.78-1.21,2.95-2.6c0.18-1.51-0.69-2.82-2.15-3.29
							c-1.3-0.42-2.62-0.81-3.85-1.39c-1.57-0.73-2.87-1.78-4.64-2c-2.97-0.38-6.88-0.87-9.17,1.49c-0.93,0.96-1.15,2.47-0.47,3.64
							c0.72,1.23,2.06,1.59,3.39,1.38c2.66-0.43,5.37-0.44,8.05-0.19c1.16,0.11,2.34-0.84,2.74-1.84c0.48-1.19,0.18-2.31-0.62-3.28
							c-1.41-1.7-3.55-2.13-5.63-1.78c1.23,0.7,2.46,1.4,3.69,2.1c-0.18,0.6-0.36,1.21-0.54,1.81c2.73-2.74-1.51-6.98-4.24-4.24
							c-1.02,1.03-1.54,2.63-1.01,4.03c0.63,1.64,1.95,2.38,3.69,2.1c-0.26,0.04-0.31-0.07-0.53-0.07c0.09,0.05,0.18,0.1,0.26,0.15
							c-0.22-0.14-0.2-0.09,0.06,0.16c0.71-1.71,1.41-3.41,2.12-5.12c-3.24-0.3-6.44-0.12-9.64,0.41c0.97,1.67,1.95,3.34,2.92,5.01
							c-0.17,0.18-0.38-0.08-0.14,0.05c0.13,0.07-0.02-0.03,0.17-0.04c0.53-0.05,1.07,0,1.6,0.03c0.74,0.04,1.49,0.11,2.23,0.12
							c0.38,0.01,0.27-0.02,0.73,0.21c1.21,0.61,2.33,1.27,3.6,1.79c1.19,0.49,2.42,0.89,3.64,1.28c0.27-1.96,0.53-3.93,0.8-5.89
							c-7.92-0.48-15.83-0.03-23.65,1.23c-1.6,0.26-2.49,2.25-2.1,3.69C234.12,332.81,235.73,333.46,237.34,333.2L237.34,333.2z"/>
					</g>
				</g>
				<g>
					<path fill="#DEB94E" d="M265.03,329.91c7.74-1.84,15.73-2.63,23.69-2.35c-4.06-1.61-8.48-2.27-12.83-1.93
						c-1.33,0.11-2.69,0.32-3.83,1.02"/>
					<g>
						<path d="M265.82,332.81c7.51-1.76,15.18-2.49,22.89-2.24c1.48,0.05,2.78-1.18,2.95-2.6c0.19-1.57-0.72-2.74-2.15-3.29
							c-3.04-1.18-6.24-1.85-9.49-2.06c-3.15-0.21-6.67-0.13-9.49,1.45c-3.37,1.89-0.35,7.08,3.03,5.18
							c1.92-1.08,4.78-0.77,6.89-0.6c2.56,0.21,5.07,0.89,7.46,1.82c0.27-1.96,0.53-3.93,0.8-5.89c-8.23-0.27-16.47,0.58-24.49,2.46
							c-1.58,0.37-2.51,2.17-2.1,3.69C262.58,332.33,264.24,333.18,265.82,332.81L265.82,332.81z"/>
					</g>
				</g>
				<g>
					<path fill="#DEB94E" d="M243.68,342.73c5.19-0.53,9.57,3.68,14.57,5.18c5.55,1.67,11.49-0.1,17.02-1.86
						c2.56-0.82,5.21-1.68,7.22-3.46c-4.6,2.13-7.14,7.9-5.6,12.73c-5.66-2.29-12.18-2.38-17.9-0.24c-0.57,0.21-1.24,0.44-1.76,0.11
						c-0.34-0.22-0.51-0.63-0.79-0.93c-0.76-0.81-2.11-0.54-3.09-0.02c-0.98,0.52-1.95,1.25-3.06,1.2c1.38-3.7-0.56-8.31-4.18-9.91
						c-0.68-0.3-1.46-1.28-0.76-1.53c2,1.96,4.17,3.76,6.47,5.37c0.98,0.69,2.01,1.35,3.17,1.66c1.1,0.3,2.27,0.26,3.41,0.22
						c3.22-0.11,6.43-0.22,9.65-0.33c2.35-0.08,5.17-0.46,6.16-2.59"/>
					<g>
						<path d="M243.68,345.73c2.99-0.24,5.56,1.26,8.27,2.67c3.42,1.78,6.85,3.11,10.75,3.18c3.95,0.07,7.86-0.93,11.61-2.08
							c3.67-1.13,7.33-2.25,10.3-4.79c1.12-0.96,1.1-2.85,0.23-3.94c-0.97-1.22-2.49-1.44-3.87-0.77c-5.8,2.81-8.81,9.99-6.98,16.12
							c1.23-1.23,2.46-2.46,3.69-3.69c-3.28-1.29-6.85-1.93-10.38-1.89c-1.79,0.02-3.59,0.23-5.35,0.58
							c-0.86,0.17-1.7,0.38-2.53,0.64c-0.35,0.11-0.69,0.23-1.03,0.35c-0.19,0.07-0.37,0.13-0.56,0.2
							c-0.55,0.14-0.48,0.14,0.19-0.02c0.44,0.26,0.88,0.51,1.32,0.77c-0.26-0.24-0.3-0.27-0.12-0.08c-0.16-0.2-0.31-0.4-0.47-0.61
							c-0.3-0.35-0.65-0.67-1.05-0.92c-0.87-0.54-1.9-0.73-2.9-0.69c-1.01,0.05-1.92,0.36-2.82,0.8c-0.46,0.23-1.19,0.84-1.7,0.86
							c0.96,1.27,1.93,2.53,2.89,3.8c0.95-2.76,0.58-5.75-0.65-8.36c-0.57-1.19-1.41-2.34-2.39-3.23c-0.51-0.46-1.07-0.89-1.65-1.25
							c-0.25-0.16-0.58-0.37-0.87-0.46c-0.71-0.22,0.36,0.68,0.07,0.06c0.14,0.5,0.27,1.01,0.41,1.51
							c-0.02,0.14-0.04,0.27-0.06,0.41c-0.46,0.6-0.92,1.2-1.38,1.79c0.06-0.04,0.13-0.09,0.19-0.13c-1.21-0.16-2.42-0.31-3.64-0.47
							c2.29,2.22,4.76,4.28,7.41,6.06c1.33,0.9,2.79,1.64,4.39,1.9c1.68,0.27,3.36,0.16,5.06,0.11c3.13-0.11,6.33-0.03,9.44-0.37
							c2.87-0.31,5.84-1.22,7.26-3.98c0.75-1.44,0.37-3.26-1.08-4.1c-1.35-0.79-3.36-0.37-4.1,1.08c-0.05,0.1-0.21,0.44-0.03,0.17
							c-0.42,0.6,0.12-0.03-0.19,0.22c-0.39,0.31-0.3,0.23-0.86,0.39c-0.92,0.26-1.26,0.27-2.32,0.32c-2.87,0.13-5.74,0.2-8.61,0.3
							c-1.11,0.04-2.3,0.19-3.4,0.02c-1.07-0.16-2-0.85-2.87-1.45c-2.1-1.46-4.03-3.12-5.86-4.9c-0.91-0.89-2.52-1.2-3.64-0.47
							c-2.08,1.37-2.23,3.91-0.57,5.7c0.52,0.56,1.12,0.88,1.77,1.23c0.65,0.36,0.68,0.38,1.21,0.9c0.65,0.64,1.11,1.54,1.35,2.5
							c0,0,0.16,0.93,0.11,0.49c0.03,0.32,0.03,0.65,0.02,0.98c-0.01,0.31-0.1,0.77-0.33,1.44c-0.62,1.81,1.03,3.87,2.89,3.8
							c1.49-0.06,2.73-0.58,4.02-1.3c0.26-0.15,0.71-0.42,0.73-0.38c0.02,0.03-1.36-0.5-0.72-0.37c-0.03-0.04-0.07-0.08-0.1-0.11
							c0.16,0.2,0.31,0.4,0.47,0.61c2.19,2.51,4.96,0.99,7.59,0.32c4.62-1.17,9.4-0.72,13.81,1.02c2.16,0.85,4.3-1.66,3.69-3.69
							c-0.34-1.12-0.4-1.58-0.32-2.84c0.02-0.39,0.41-1.97,0.58-2.37c0.87-2.01,2.08-3.21,3.96-4.12c-1.21-1.57-2.42-3.14-3.64-4.71
							c-2.3,1.96-5.71,2.68-8.54,3.51c-3.38,1.01-6.91,1.89-10.47,1.52c-3.03-0.31-5.62-1.92-8.28-3.28
							c-2.92-1.48-6.05-2.77-9.39-2.5c-1.62,0.13-3,1.29-3,3C240.68,344.25,242.06,345.86,243.68,345.73L243.68,345.73z"/>
					</g>
				</g>
				<g>
					<path fill="#DEB94E" d="M276.75,355.08c-0.98-1-2.5-1.19-3.9-1.32c-2.1-0.19-4.21-0.38-6.31-0.58
						c-2.16-0.2-4.34-0.39-6.49-0.07c-3.8,0.57-7.15,2.72-10.37,4.81c-0.24-1.07,0.56-2.08,1.38-2.81c0.81-0.74,1.75-1.49,1.93-2.58
						"/>
					<g>
						<path d="M278.87,352.96c-2.19-1.99-4.92-2.09-7.72-2.35c-2.76-0.25-5.55-0.63-8.33-0.66c-5.53-0.06-10.14,2.46-14.65,5.39
							c1.5,0.86,3.01,1.73,4.51,2.59c-0.04-0.38,0.07-0.32-0.03-0.16c0.28-0.44,0.85-0.8,1.22-1.15c0.95-0.91,1.7-1.99,2.02-3.27
							c0.92-3.75-4.86-5.35-5.79-1.6c-0.09,0.37-0.08,0.25-0.47,0.63c-0.45,0.43-0.93,0.82-1.34,1.3c-1.01,1.18-1.8,2.66-1.61,4.26
							c0.25,2.09,2.41,3.96,4.51,2.59c3.43-2.23,6.94-4.53,11.16-4.57c2.37-0.02,4.74,0.29,7.09,0.51c1.13,0.1,2.27,0.19,3.4,0.31
							c0.55,0.06,1.4,0.1,1.78,0.44c1.2,1.09,3.06,1.19,4.24,0C279.97,356.1,280.07,354.05,278.87,352.96L278.87,352.96z"/>
					</g>
				</g>
				<g>
					<path fill="#DEB94E" d="M278.76,355.42c0.02-2.2,0.04-4.41,0.06-6.61c0.01-1.15,0.03-2.34,0.54-3.38
						c0.87-1.77,2.91-2.59,4.77-3.26"/>
					<g>
						<path d="M281.76,355.42c0.01-1.45,0.03-2.91,0.04-4.36c0.01-0.71,0.01-1.41,0.02-2.12c0-0.31,0.01-0.63,0.02-0.94
							c0.01-0.15,0.01-0.31,0.02-0.46c0-0.08,0.01-0.15,0.02-0.23c0.02-0.23,0.01-0.15-0.03,0.23c0.03,0,0.14-0.88,0.23-0.88
							c0.01,0-0.28,0.51-0.04,0.13c0.04-0.07,0.19-0.24,0.2-0.32c-0.01,0.11-0.42,0.47-0.13,0.17c0.09-0.09,0.17-0.18,0.26-0.27
							c0.08-0.07,0.23-0.16,0.28-0.25c-0.06,0.11-0.5,0.35-0.16,0.13c0.46-0.3,0.94-0.54,1.44-0.79c0.35-0.18-0.55,0.22-0.18,0.07
							c0.12-0.05,0.24-0.1,0.36-0.14c0.27-0.1,0.54-0.2,0.82-0.3c1.47-0.53,2.62-2.07,2.1-3.69c-0.47-1.45-2.11-2.66-3.69-2.1
							c-3.08,1.11-6.08,2.63-7.12,5.99c-0.49,1.59-0.39,3.35-0.41,4.99c-0.02,1.72-0.03,3.44-0.05,5.16c-0.01,1.57,1.39,3.07,3,3
							C280.4,358.34,281.75,357.1,281.76,355.42L281.76,355.42z"/>
					</g>
				</g>
			</g>
		</g>
	</g>
</g>
<g id="view_space_512">
	<g>
		<path fill="#FF3A40" d="M-244,26v420h-420V26H-244 M-243,25h-422v422h422V25L-243,25z"/>
	</g>
</g>
</svg>
